<svg width="92" height="90" viewBox="0 0 92 90" fill="none" xmlns="http://www.w3.org/2000/svg">
<path d="M24.3895 37.0551C24.3895 30.4557 19.0206 25.0868 12.4212 25.0868C5.82185 25.0868 0.453125 30.4557 0.453124 37.0551C0.453124 40.021 1.57848 42.8468 3.54924 45.0015C1.63476 47.1242 0.542495 49.9453 0.542495 52.9451C0.542494 59.5445 5.91123 64.9134 12.5106 64.9134C19.1099 64.9134 24.4787 59.5445 24.4787 52.9451C24.4787 52.8876 24.4782 52.83 24.4774 52.7726L67.6118 52.7726C67.6109 52.8302 67.6105 52.8876 67.6105 52.9451C67.6105 59.5445 72.9794 64.9134 79.5788 64.9134C86.1781 64.9134 91.5469 59.5443 91.5469 52.9449C91.5469 50.0059 90.4449 47.1884 88.5163 45.0249C90.4456 42.8993 91.5469 40.0672 91.5469 37.0551C91.5469 30.4557 86.1781 25.0868 79.5788 25.0868C72.9794 25.0868 67.6105 30.4557 67.6105 37.0551C67.6105 37.1127 67.6109 37.1702 67.6118 37.2276L24.3882 37.2276C24.3891 37.17 24.3895 37.1127 24.3895 37.0551ZM71.7202 40.6982C72.1276 40.1768 72.2711 39.497 72.111 38.8548C71.9778 38.3216 71.9074 37.6992 71.9074 37.0549C71.9074 32.825 75.3489 29.3834 79.5788 29.3834C83.8086 29.3834 87.25 32.825 87.25 37.0551C87.25 39.5722 86.0671 41.8779 84.0856 43.2224C83.504 43.6171 83.1521 44.2715 83.1437 44.9744C83.1334 45.6671 83.4709 46.3398 84.0432 46.7484C86.0512 48.1825 87.25 50.4991 87.25 52.9449C87.25 57.1748 83.8086 60.6164 79.5788 60.6164C75.3489 60.6164 71.9074 57.175 71.9074 52.9449C71.9074 52.3006 71.9778 51.6782 72.111 51.145C72.2711 50.5034 72.1271 49.823 71.7202 49.3016C71.3131 48.7802 70.6883 48.4753 70.0268 48.4753L22.0625 48.4753C21.401 48.4753 20.7763 48.78 20.3691 49.3016C19.962 49.8232 19.8181 50.503 19.9783 51.145C20.1113 51.6776 20.1818 52.3 20.1818 52.9449C20.1818 57.1748 16.7404 60.6164 12.5106 60.6164C8.28074 60.6164 4.83937 57.175 4.83937 52.9449C4.83937 50.4276 6.0223 48.1221 8.00381 46.7776C8.59054 46.3793 8.94311 45.7171 8.9459 45.008C8.9459 45.0052 8.9459 45.0026 8.9459 44.9998C8.9459 44.2936 8.59892 43.6323 8.01713 43.2312C5.97139 41.8205 4.75 39.5116 4.75 37.0551C4.75 32.8252 8.19137 29.3837 12.4212 29.3837C16.6511 29.3837 20.0926 32.825 20.0926 37.0551C20.0926 37.6994 20.0222 38.3218 19.889 38.855C19.7283 39.4968 19.8726 40.177 20.2798 40.6984C20.6869 41.2198 21.3117 41.5247 21.9732 41.5247L70.0268 41.5247C70.6883 41.5245 71.3131 41.2196 71.7202 40.6982Z" fill="white"/>
<path d="M47.0742 87.1094L47.0742 72.9297C47.0742 71.7431 46.1121 70.7812 44.9258 70.7812C43.7394 70.7812 42.7773 71.7431 42.7773 72.9297L42.7773 87.1094C42.7773 88.296 43.7394 89.2578 44.9258 89.2578C46.1121 89.2578 47.0742 88.296 47.0742 87.1094Z" fill="white"/>
<path d="M34.0055 83.6691L38.3024 73.7862C38.7753 72.6981 38.2773 71.4324 37.1887 70.9593C36.1007 70.4862 34.8348 70.9849 34.3618 72.0731L30.0649 81.9559C29.9437 82.235 29.8861 82.5254 29.8861 82.8114C29.8861 83.6407 30.3693 84.4309 31.1786 84.7828C32.2666 85.2559 33.5325 84.7572 34.0055 83.6691Z" fill="white"/>
<path d="M51.3704 72.9307C51.3704 73.2167 51.428 73.5074 51.5492 73.7862L55.8461 83.6691C56.3192 84.7572 57.585 85.2559 58.673 84.7828C59.7612 84.3097 60.2596 83.0441 59.7867 81.9559L55.4899 72.0731C55.0168 70.9849 53.7509 70.4862 52.6629 70.9593C51.8536 71.3112 51.3704 72.1012 51.3704 72.9307Z" fill="white"/>
<path d="M44.9258 0.742187C43.7394 0.742187 42.7773 1.70404 42.7773 2.89062L42.7773 17.0703C42.7773 18.2569 43.7394 19.2187 44.9258 19.2187C46.1121 19.2187 47.0742 18.2569 47.0742 17.0703L47.0742 2.89062C47.0742 1.70404 46.1121 0.742187 44.9258 0.742187Z" fill="white"/>
<path d="M55.4899 17.9269L59.7868 8.04409C60.2594 6.9559 59.7616 5.69026 58.673 5.21717C57.585 4.74409 56.3192 5.24274 55.8461 6.33092L51.5492 16.2137C51.4281 16.4928 51.3705 16.7833 51.3705 17.0692C51.3705 17.8985 51.8537 18.6887 52.663 19.0406C53.7509 19.5137 55.0168 19.0151 55.4899 17.9269Z" fill="white"/>
<path d="M30.0647 8.04409L34.3616 17.9269C34.8347 19.0151 36.1005 19.5137 37.1885 19.0406C38.2765 18.5676 38.7751 17.3015 38.3023 16.2137L34.0054 6.33092C33.5323 5.24274 32.2664 4.74409 31.1785 5.21717C30.3692 5.56909 29.886 6.35907 29.886 7.18858C29.886 7.47453 29.9435 7.76522 30.0647 8.04409Z" fill="white"/>
</svg>
