<svg width="67" height="91" viewBox="0 0 67 91" fill="none" xmlns="http://www.w3.org/2000/svg">
<path d="M33.2891 0.0221402C32.8958 0.0251644 32.5191 0.181948 32.2394 0.458683C32.2394 0.458683 30.5112 2.22366 27.8401 5.17046C26.5383 6.60669 28.6384 8.74802 30.0781 7.1874C31.9654 5.14167 32.6296 4.41215 33.3068 3.69036C34.1759 4.60084 40.4511 11.1647 47.9437 21.2876C55.9048 32.0434 63.5005 45.9643 63.5005 57.3813C63.5005 74.0747 50.0031 87.5838 33.3098 87.5838C16.6164 87.5838 3.12205 74.0747 3.12204 57.3813C3.12204 42.2295 16.7959 22.8853 26.1123 11.7695C27.5564 10.2192 25.0819 8.13979 23.8035 9.8293C14.334 21.1279 0.0997269 40.4765 0.0997314 57.3813C0.099736 75.7065 14.9846 90.6032 33.3098 90.6032C51.6349 90.6032 66.5198 75.7065 66.5198 57.3813C66.5198 44.6434 58.3853 30.5674 50.3821 19.5154C42.379 8.46343 34.3801 0.458683 34.3801 0.458683C34.0903 0.171678 33.6968 0.014152 33.2891 0.0221402ZM27.271 40.7777V48.3349H19.7256C18.8918 48.3319 18.2133 49.005 18.21 49.8387V58.8997C18.2133 59.7335 18.8918 60.4067 19.7256 60.4035H27.271V67.9578C27.2744 68.7915 27.9529 69.4648 28.7866 69.4616H37.8359C38.6696 69.4646 39.3481 68.7915 39.3515 67.9578V60.4035H46.894C47.7289 60.4081 48.4092 59.7346 48.4125 58.8997V49.8387C48.4092 49.0038 47.7288 48.3301 46.894 48.3349H39.3515V40.7777C39.3481 39.944 38.6696 39.2707 37.8359 39.2739H28.7085C27.8581 39.3515 27.2703 40.0016 27.271 40.7777ZM30.2904 42.2932H36.3321V49.8387C36.3289 50.6725 37.0021 51.3511 37.8359 51.3544H45.3902V57.3812H37.8359C37.001 57.3842 36.3273 58.0649 36.3321 58.8997V66.4424H30.2904V58.8997C30.2952 58.0649 29.6215 57.3845 28.7866 57.3812H21.2294V51.3544H28.7866C29.6204 51.3511 30.2936 50.6725 30.2904 49.8387V42.2932Z" fill="white"/>
</svg>
