<svg width="85" height="85" viewBox="0 0 85 85" fill="none" xmlns="http://www.w3.org/2000/svg">
<path d="M41 5.49999V75.1667C41 76.1792 41.8208 77 42.8333 77C43.8459 77 44.6667 76.1792 44.6667 75.1667V5.49999C44.6667 4.48747 43.8459 3.66666 42.8333 3.66666C41.8208 3.66666 41 4.48747 41 5.49999Z" fill="white"/>
<path d="M61.0501 35.6011C66.9226 34.3022 69.8143 27.5452 67.8788 22.6795C67.5045 21.7387 66.4385 21.2794 65.4977 21.6536C64.5568 22.0279 64.0975 23.094 64.4718 24.0348C65.621 26.9238 63.7722 31.2437 60.2582 32.021C59.2696 32.2396 58.6454 33.2183 58.8641 34.207C59.0827 35.1956 60.0614 35.8198 61.0501 35.6011Z" fill="white"/>
<path d="M31.1259 30.9636C25.2534 29.6647 22.3616 22.9077 24.2971 18.042C24.6714 17.1012 25.7375 16.6419 26.6783 17.0162C27.6191 17.3904 28.0784 18.4565 27.7041 19.3973C26.5549 22.2863 28.4037 26.6062 31.9177 27.3835C32.9064 27.6021 33.5305 28.5808 33.3119 29.5695C33.0932 30.5581 32.1145 31.1823 31.1259 30.9636Z" fill="white"/>
<path d="M52.3998 54.6246C58.2723 53.3257 61.1641 46.5687 59.2286 41.703C58.8543 40.7622 57.7882 40.3029 56.8474 40.6771C55.9066 41.0514 55.4473 42.1175 55.8216 43.0583C56.9708 45.9472 55.122 50.2672 51.608 51.0444C50.6193 51.2631 49.9952 52.2418 50.2138 53.2304C50.4325 54.2191 51.4112 54.8433 52.3998 54.6246Z" fill="white"/>
<path d="M35.5928 63.5773C29.7203 62.2784 26.8285 55.5214 28.7641 50.6557C29.1383 49.7149 30.2044 49.2556 31.1452 49.6299C32.086 50.0041 32.5453 51.0702 32.1711 52.011C31.0219 54.9 32.8707 59.22 36.3847 59.9972C37.3733 60.2158 37.9975 61.1945 37.7788 62.1832C37.5602 63.1718 36.5815 63.796 35.5928 63.5773Z" fill="white"/>
<path d="M69.5281 12.9448C67.1837 5.31057 60.1083 0 52 0C48.2516 0 44.6672 1.1293 41.6404 3.20562C40.8055 3.77839 40.593 4.91957 41.1657 5.75451C41.7385 6.58946 42.8797 6.802 43.7146 6.22923C46.1355 4.56851 48.998 3.66667 52 3.66667C58.4867 3.66667 64.1482 7.91597 66.023 14.0212C66.3203 14.9891 67.3459 15.5328 68.3138 15.2355C69.2817 14.9383 69.8254 13.9127 69.5281 12.9448Z" fill="white"/>
<path d="M63 55C75.1503 55 85 45.1503 85 33C85 22.8521 78.0726 14.0917 68.3632 11.6588C67.381 11.4127 66.3853 12.0094 66.1392 12.9915C65.8931 13.9737 66.4898 14.9694 67.472 15.2155C75.5594 17.242 81.3333 24.5437 81.3333 33C81.3333 43.1252 73.1252 51.3333 63 51.3333C61.9875 51.3333 61.1667 52.1541 61.1667 53.1667C61.1667 54.1792 61.9875 55 63 55Z" fill="white"/>
<path d="M76.3899 59.6221C79.4856 57.2061 81.3333 53.5038 81.3333 49.5C81.3333 48.0131 81.0796 46.5583 80.5891 45.1843C80.2486 44.2307 79.1996 43.7337 78.2461 44.0741C77.2925 44.4146 76.7955 45.4636 77.1359 46.4172C77.4857 47.3969 77.6667 48.4347 77.6667 49.5C77.6667 52.3622 76.3486 55.0032 74.134 56.7315C73.3358 57.3544 73.1937 58.5065 73.8167 59.3047C74.4396 60.1029 75.5917 60.245 76.3899 59.6221Z" fill="white"/>
<path d="M48.3333 62.3333C48.3333 70.4335 54.8998 77 63 77C71.1002 77 77.6667 70.4335 77.6667 62.3333C77.6667 60.6218 77.3727 58.9478 76.8044 57.368C76.4616 56.4153 75.4114 55.9208 74.4587 56.2635C73.5059 56.6063 73.0114 57.6565 73.3541 58.6092C73.7797 59.7923 74 61.0464 74 62.3333C74 68.4084 69.0751 73.3333 63 73.3333C56.9249 73.3333 52 68.4084 52 62.3333C52 61.3208 51.1792 60.5 50.1667 60.5C49.1542 60.5 48.3333 61.3208 48.3333 62.3333Z" fill="white"/>
<path d="M41 73.3333C41 79.4085 45.9249 84.3333 52 84.3333C57.2925 84.3333 61.8061 80.5692 62.7996 75.4323C62.9919 74.4382 62.3419 73.4764 61.3478 73.2842C60.3537 73.0919 59.3919 73.7419 59.1997 74.736C58.5382 78.1562 55.5278 80.6667 52 80.6667C47.9499 80.6667 44.6667 77.3834 44.6667 73.3333C44.6667 72.3208 43.8459 71.5 42.8333 71.5C41.8208 71.5 41 72.3208 41 73.3333Z" fill="white"/>
<path d="M16.1388 12.9448C18.4832 5.31057 25.5586 0 33.667 0C37.4154 0 40.9998 1.1293 44.0265 3.20562C44.8615 3.77839 45.074 4.91957 44.5012 5.75451C43.9285 6.58946 42.7873 6.802 41.9523 6.22923C39.5314 4.56851 36.669 3.66667 33.667 3.66667C27.1803 3.66667 21.5188 7.91597 19.6439 14.0212C19.3467 14.9891 18.3211 15.5328 17.3532 15.2355C16.3853 14.9383 15.8416 13.9127 16.1388 12.9448Z" fill="white"/>
<path d="M5.23343 46.4216C2.28973 42.6034 0.666229 37.9227 0.666229 33C0.666229 22.8521 7.59366 14.0917 17.3031 11.6588C18.2852 11.4127 19.2809 12.0094 19.527 12.9915C19.7731 13.9737 19.1764 14.9694 18.1943 15.2155C10.1069 17.242 4.3329 24.5437 4.3329 33C4.3329 37.1055 5.68393 41.0007 8.13729 44.1829C8.75551 44.9848 8.60662 46.136 7.80474 46.7542C7.00285 47.3724 5.85164 47.2235 5.23343 46.4216Z" fill="white"/>
<path d="M8.72087 61.7954C5.93361 59.0567 4.33313 55.3198 4.33313 51.3333C4.33313 43.2331 10.8996 36.6667 18.9998 36.6667C21.8928 36.6667 24.6656 37.5077 27.0347 39.0616C27.8813 39.6169 28.1175 40.7535 27.5621 41.6001C27.0068 42.4468 25.8703 42.6829 25.0236 42.1276C23.2476 40.9627 21.1728 40.3333 18.9998 40.3333C12.9247 40.3333 7.9998 45.2582 7.9998 51.3333C7.9998 54.326 9.19808 57.1238 11.2907 59.18C12.0129 59.8897 12.0231 61.0504 11.3135 61.7726C10.6038 62.4948 9.44309 62.505 8.72087 61.7954Z" fill="white"/>
<path d="M24.4264 76.8953C23.8451 76.9649 23.2577 77 22.6665 77C14.5663 77 7.99979 70.4335 7.99979 62.3333C7.99979 61.4292 8.08182 60.5345 8.24365 59.6574C8.42737 58.6617 9.38348 58.0034 10.3792 58.1872C11.3749 58.3709 12.0332 59.327 11.8495 60.3227C11.7281 60.9806 11.6665 61.6526 11.6665 62.3333C11.6665 68.4085 16.5913 73.3333 22.6665 73.3333C23.112 73.3333 23.5538 73.307 23.9905 73.2547C24.9958 73.1343 25.9084 73.8517 26.0288 74.857C26.1492 75.8623 25.4318 76.7749 24.4264 76.8953Z" fill="white"/>
<path d="M28.3659 63.6929C24.8799 65.6131 22.6667 69.2795 22.6667 73.3334C22.6667 79.4085 27.5916 84.3334 33.6667 84.3334C39.7418 84.3334 44.6667 79.4085 44.6667 73.3334C44.6667 72.3208 43.8459 71.5 42.8334 71.5C41.8208 71.5 41 72.3208 41 73.3334C41 77.3835 37.7168 80.6667 33.6667 80.6667C29.6166 80.6667 26.3334 77.3835 26.3334 73.3334C26.3334 70.6293 27.8081 68.1863 30.1349 66.9046C31.0218 66.4161 31.3447 65.3011 30.8562 64.4142C30.3677 63.5273 29.2527 63.2044 28.3659 63.6929Z" fill="white"/>
</svg>
