<svg width="31" height="31" viewBox="0 0 31 31" fill="none" xmlns="http://www.w3.org/2000/svg">
<g clip-path="url(#clip0)">
<path d="M15.8318 9.86172C15.7108 9.86172 15.5796 9.85163 15.4484 9.84154C14.3588 9.74064 13.8644 9.2059 13.6424 8.78214C12.8958 7.33935 14.0965 5.01877 14.4899 4.34277C14.8733 3.67687 14.9843 2.47622 14.9944 2.06255C15.0045 1.84058 15.1458 1.65897 15.3576 1.58834C15.5695 1.52781 15.7915 1.60852 15.9126 1.78005C16.2455 2.26434 17.9204 4.69591 18.0818 5.61405L18.102 5.70485C18.2331 6.44138 18.5358 8.16669 17.6076 9.16554C17.1838 9.62966 16.5886 9.86172 15.8318 9.86172ZM15.8318 3.48517C15.741 3.94928 15.5897 4.44367 15.3677 4.83716C14.4193 6.50192 14.268 7.78328 14.5404 8.31803C14.6009 8.42901 14.7724 8.76196 15.5493 8.83259C16.1648 8.89313 16.6087 8.77205 16.8711 8.48955C17.4563 7.85391 17.204 6.42121 17.1132 5.88646L17.093 5.78557C17.0224 5.43244 16.4473 4.43358 15.8318 3.48517Z" fill="white"/>
<path d="M15.4987 11.557C15.2162 11.557 14.9943 11.335 14.9943 11.0525V9.3373C14.9943 9.05479 15.2162 8.83282 15.4987 8.83282C15.7812 8.83282 16.0032 9.05479 16.0032 9.3373V11.0525C16.0032 11.335 15.7812 11.557 15.4987 11.557Z" fill="white"/>
<path d="M15.4989 14.0286C13.0875 14.0286 10.8073 13.6452 9.08196 12.949C7.21541 12.1923 6.18628 11.1228 6.18628 9.95243C6.18628 9.20581 6.59995 8.11615 8.57748 7.17783C8.58757 7.17783 8.59766 7.16774 8.60775 7.16774C10.323 6.48165 12.1592 6.06798 14.0863 5.92673C14.2478 5.91664 14.4092 5.98727 14.5202 6.11843C14.6211 6.2496 14.6614 6.42112 14.611 6.58255C14.4092 7.24845 14.2579 8.12624 14.7018 8.53991C14.722 8.56009 14.7522 8.58026 14.7623 8.60044C14.7623 8.60044 14.7724 8.60044 14.7724 8.61053C14.7825 8.62062 14.7926 8.63071 14.8027 8.63071C14.843 8.65089 14.8632 8.67107 14.8935 8.68116C14.9137 8.69125 14.9238 8.70134 14.9439 8.70134C14.9439 8.70134 14.954 8.70134 14.954 8.71143C14.9843 8.73161 15.0347 8.7417 15.065 8.76187C15.1155 8.78205 15.1558 8.79214 15.2063 8.80223C15.3072 8.8325 15.4181 8.84259 15.5493 8.86277C15.9832 8.90313 16.3363 8.85268 16.5986 8.72152C16.639 8.70134 16.6692 8.68116 16.6995 8.66098C16.75 8.63071 16.8004 8.59035 16.8408 8.55C16.8609 8.52982 16.871 8.51973 16.8811 8.49955C16.9921 8.36838 17.0829 8.20695 17.1334 8.00516C17.1434 7.9749 17.1535 7.93454 17.1636 7.90427V7.89418C17.2242 7.65203 17.2443 7.36953 17.2343 7.03657C17.2343 6.94577 17.2242 6.86505 17.2141 6.75407C17.2141 6.74398 17.2141 6.73389 17.2141 6.71371C17.2141 6.67335 17.204 6.633 17.204 6.59264C17.1838 6.4413 17.2343 6.27986 17.3452 6.16888C17.4562 6.0579 17.6076 6.00745 17.7589 6.02763C19.3732 6.21933 20.9169 6.60273 22.3597 7.17783C22.3698 7.17783 22.3799 7.18792 22.39 7.18792C24.3877 8.12624 24.8014 9.22599 24.8014 9.97261C24.8014 11.143 23.7722 12.2125 21.9057 12.9692C20.1905 13.6452 17.9102 14.0286 15.4989 14.0286ZM9.00124 8.08588C7.85104 8.63071 7.19523 9.30671 7.19523 9.94234C7.19523 11.3952 10.6055 13.0196 15.4888 13.0196C20.3721 13.0196 23.7823 11.4053 23.7823 9.94234C23.7823 9.30671 23.1164 8.63071 21.9662 8.07579C20.7958 7.61167 19.5346 7.26863 18.2331 7.07693C18.2432 7.45024 18.2129 7.7832 18.1423 8.08588C18.1322 8.13633 18.112 8.19686 18.1019 8.24731C18.0011 8.60044 17.8396 8.89304 17.6378 9.13519C17.6076 9.16545 17.5773 9.19572 17.547 9.22599C17.4562 9.3168 17.3654 9.39751 17.2443 9.46814C17.1737 9.5085 17.1132 9.54885 17.0426 9.58921C16.6188 9.81118 16.074 9.8919 15.4383 9.84145C15.2567 9.82127 15.0953 9.80109 14.9439 9.76073C14.8733 9.74055 14.8027 9.72038 14.7321 9.7002H14.722C14.6614 9.68002 14.5908 9.64975 14.5202 9.61948C14.4798 9.5993 14.4496 9.58921 14.4193 9.56903C14.3688 9.53876 14.3083 9.5085 14.2478 9.46814L14.2377 9.45805C14.2074 9.43787 14.1872 9.41769 14.157 9.39751C14.1065 9.35715 14.046 9.3168 13.9955 9.25626C13.4608 8.75179 13.2792 7.98498 13.4608 6.98613C11.907 7.15765 10.4138 7.53096 9.00124 8.08588Z" fill="white"/>
<path d="M15.4988 29.4253C11.4832 29.4253 7.70971 28.2146 4.86447 26.015C1.97888 23.7853 0.394836 20.8089 0.394836 17.6408C0.394836 13.1913 3.54275 9.1757 8.61776 7.14772C10.3229 6.46163 12.1693 6.04797 14.0963 5.90671C14.2578 5.89662 14.4192 5.96725 14.5302 6.09841C14.6311 6.22958 14.6714 6.4011 14.621 6.56253C14.4192 7.22843 14.2679 8.10622 14.7118 8.51989C14.732 8.54007 14.7623 8.56025 14.7723 8.58042C14.7723 8.58042 14.7824 8.58043 14.7824 8.59051C14.7925 8.6006 14.8026 8.61069 14.8127 8.61069C14.8531 8.63087 14.8732 8.65105 14.9035 8.66114C14.9237 8.67123 14.9338 8.68132 14.954 8.68132C14.954 8.68132 14.964 8.68132 14.964 8.69141C15.0044 8.71159 15.0347 8.72168 15.075 8.73177C15.1255 8.75195 15.1658 8.76203 15.2062 8.77212H15.2163C15.3172 8.7923 15.4282 8.81248 15.5593 8.82257C15.9932 8.86293 16.3463 8.81248 16.6086 8.68132C16.649 8.66114 16.6793 8.64096 16.7095 8.62078C16.76 8.59051 16.8104 8.55016 16.8508 8.5098C16.871 8.48962 16.881 8.47953 16.8911 8.45935C17.0021 8.32819 17.0929 8.16676 17.1434 7.96497C17.1535 7.9347 17.1635 7.89434 17.1736 7.86407V7.85398C17.2342 7.61183 17.2544 7.32933 17.2443 6.99638C17.2443 6.90557 17.2342 6.82486 17.2241 6.71387C17.2241 6.70378 17.2241 6.69369 17.2241 6.67351C17.2241 6.63316 17.214 6.5928 17.214 6.55244C17.1938 6.4011 17.2443 6.23967 17.3552 6.12868C17.4662 6.0177 17.6176 5.96725 17.7689 5.98743C19.3832 6.17913 20.9269 6.56253 22.3697 7.13763C27.4548 9.15552 30.6128 13.1812 30.6128 17.6408C30.6128 20.8089 29.0288 23.7853 26.1432 26.015C23.2879 28.2146 19.5144 29.4253 15.4988 29.4253ZM13.4708 6.98629C11.9069 7.15781 10.4036 7.53112 8.99107 8.09613C4.30955 9.96268 1.40378 13.6252 1.40378 17.6509C1.40378 23.5936 7.72989 28.4264 15.4988 28.4264C23.2677 28.4264 29.5938 23.5936 29.5938 17.6509C29.5938 13.6151 26.6779 9.95259 21.9863 8.08604C20.8058 7.61184 19.5447 7.27888 18.2431 7.07709C18.2532 7.4504 18.2229 7.78336 18.1523 8.08604C18.1422 8.13649 18.122 8.19702 18.112 8.24747C18.0111 8.6006 17.8496 8.8932 17.6478 9.13535C17.6176 9.16561 17.5873 9.19588 17.557 9.22615C17.4662 9.31696 17.3754 9.39767 17.2544 9.4683C17.1837 9.50866 17.1232 9.54901 17.0526 9.58937C16.6288 9.81134 16.084 9.89206 15.4483 9.84161C15.2667 9.82143 15.1154 9.80125 14.964 9.76089C14.8833 9.74071 14.8127 9.72054 14.7421 9.70036C14.6714 9.68018 14.6008 9.64991 14.5302 9.61964C14.4898 9.59946 14.4596 9.58937 14.4293 9.56919C14.3789 9.53893 14.3183 9.50866 14.2578 9.4683L14.2477 9.45821C14.2174 9.43803 14.1972 9.41785 14.167 9.39767C14.1165 9.35732 14.056 9.31696 14.0055 9.25642C13.4708 8.75195 13.2892 7.98514 13.4708 6.98629ZM17.2644 6.86521C17.2644 6.86521 17.2644 6.8753 17.2644 6.86521C17.2644 6.8753 17.2644 6.86521 17.2644 6.86521Z" fill="white"/>
<path d="M8.97098 22.7864C8.94071 22.7864 8.91044 22.7864 8.88017 22.7763C5.46993 22.1407 2.75586 20.7685 0.566442 18.5993C0.364653 18.4076 0.364653 18.0847 0.566442 17.8829C0.758142 17.6811 1.08101 17.6811 1.28279 17.8829C3.35114 19.9311 5.83315 21.1721 9.07187 21.7875C9.34429 21.838 9.5259 22.1003 9.47545 22.3727C9.425 22.6149 9.21312 22.7864 8.97098 22.7864Z" fill="white"/>
</g>
<defs>
<clipPath id="clip0">
<rect width="30.6" height="30.6" fill="white" transform="translate(0.199829 0.199829)"/>
</clipPath>
</defs>
</svg>
