<svg width="32" height="32" viewBox="0 0 32 32" fill="none" xmlns="http://www.w3.org/2000/svg">
<g clip-path="url(#clip0)">
<path d="M6.49995 12.5437C7.29633 12.548 8.07608 12.3158 8.74036 11.8765C9.40464 11.4373 9.92354 10.8106 10.2313 10.0761C10.5391 9.3416 10.6219 8.53225 10.4692 7.75063C10.3165 6.96901 9.93513 6.25033 9.37353 5.68566C8.81193 5.12099 8.09534 4.73577 7.31457 4.5788C6.5338 4.42184 5.724 4.5002 4.98781 4.80397C4.25163 5.10773 3.6222 5.62322 3.17929 6.28509C2.73639 6.94697 2.49995 7.72543 2.49995 8.52183C2.49706 9.58559 2.91686 10.6069 3.66701 11.3612C4.41715 12.1154 5.43619 12.5408 6.49995 12.5437ZM6.49995 5.50544C7.09724 5.50218 7.68205 5.67632 8.18026 6.00579C8.67846 6.33526 9.06765 6.80522 9.29847 7.35611C9.5293 7.907 9.59139 8.51401 9.47685 9.10023C9.36232 9.68644 9.07634 10.2255 8.65514 10.649C8.23394 11.0725 7.69649 11.3614 7.11091 11.4791C6.52533 11.5968 5.91799 11.538 5.36585 11.3102C4.81371 11.0824 4.34163 10.6958 4.00946 10.1994C3.67728 9.70297 3.49995 9.11912 3.49995 8.52183C3.49869 7.72428 3.81383 6.9588 4.37624 6.39331C4.93866 5.82783 5.70241 5.50852 6.49995 5.50544Z" fill="white"/>
<path d="M4 23.8552C3.86704 23.8556 3.73966 23.9087 3.64589 24.003C3.55213 24.0973 3.49965 24.225 3.5 24.3579V26.0922C3.5 26.3833 3.24927 26.4945 3 26.4945H1V16.8169C0.999901 15.9163 1.30214 15.0417 1.85828 14.3333C2.41442 13.6249 3.19228 13.1237 4.06719 12.91C3.7082 12.707 3.37557 12.4605 3.07682 12.1762C2.16385 12.5606 1.38478 13.2062 0.83739 14.0318C0.29 14.8574 -0.00131674 15.8263 4.47423e-06 16.8169V27.1229C4.47423e-06 27.4006 0.223882 27.5 0.500004 27.5H3C3.19175 27.5094 3.38344 27.4802 3.56363 27.4139C3.74382 27.3477 3.90883 27.2459 4.04882 27.1145C4.1888 26.9831 4.30089 26.8249 4.37841 26.6492C4.45593 26.4736 4.49728 26.2842 4.5 26.0922V24.3579C4.50036 24.225 4.44788 24.0973 4.35411 24.003C4.26035 23.9087 4.13297 23.8556 4 23.8552Z" fill="white"/>
<path d="M25.5 12.5437C26.2963 12.548 27.0761 12.3158 27.7404 11.8765C28.4046 11.4373 28.9235 10.8106 29.2313 10.0761C29.5391 9.3416 29.6219 8.53225 29.4692 7.75063C29.3164 6.96901 28.9351 6.25033 28.3735 5.68566C27.8119 5.12099 27.0953 4.73577 26.3146 4.5788C25.5338 4.42184 24.724 4.5002 23.9878 4.80397C23.2516 5.10773 22.6222 5.62322 22.1793 6.28509C21.7364 6.94697 21.5 7.72543 21.5 8.52183C21.4971 9.58559 21.9169 10.6069 22.667 11.3612C23.4172 12.1154 24.4362 12.5408 25.5 12.5437ZM25.5 5.50544C26.0972 5.50218 26.682 5.67632 27.1803 6.00579C27.6785 6.33526 28.0676 6.80522 28.2985 7.35611C28.5293 7.907 28.5914 8.51401 28.4769 9.10023C28.3623 9.68644 28.0763 10.2255 27.6551 10.649C27.2339 11.0725 26.6965 11.3614 26.1109 11.4791C25.5253 11.5968 24.918 11.538 24.3658 11.3102C23.8137 11.0824 23.3416 10.6958 23.0095 10.1994C22.6773 9.70297 22.5 9.11912 22.5 8.52183C22.4987 7.72428 22.8138 6.9588 23.3762 6.39331C23.9387 5.82783 24.7024 5.50852 25.5 5.50544Z" fill="white"/>
<path d="M32 16.8169C32.0013 15.8263 31.71 14.8574 31.1626 14.0318C30.6152 13.2062 29.8362 12.5606 28.9232 12.1762C28.6244 12.4605 28.2918 12.707 27.9328 12.91C28.8077 13.1237 29.5856 13.6249 30.1417 14.3333C30.6979 15.0417 31.0001 15.9163 31 16.8169V26.4945H28.75C28.5007 26.4945 28.5 26.132 28.5 25.8408V24.3579C28.5 24.2253 28.4473 24.0981 28.3536 24.0044C28.2598 23.9106 28.1326 23.8579 28 23.8579C27.8674 23.8579 27.7402 23.9106 27.6464 24.0044C27.5527 24.0981 27.5 24.2253 27.5 24.3579V25.8408C27.5 26.6864 27.6063 27.5 29 27.5H31.5C31.7761 27.5 32 27.4006 32 27.1229V16.8169Z" fill="white"/>
<path d="M20.25 26.4946V19.5133L22.8682 16.6495C22.9579 16.5511 23.0052 16.4212 22.9996 16.2882C22.994 16.1551 22.9361 16.0296 22.8384 15.9391C22.7901 15.8945 22.7335 15.8598 22.6718 15.8371C22.6101 15.8144 22.5445 15.8042 22.4789 15.807C22.4132 15.8098 22.3487 15.8255 22.2892 15.8533C22.2296 15.8812 22.1761 15.9205 22.1318 15.9691C22.1318 15.9691 16.4004 22.2393 16.3911 22.2514C16.3542 22.3003 16.3077 22.3411 16.2544 22.3714C16.2011 22.4016 16.1421 22.4206 16.0812 22.4272C16.0203 22.4337 15.9587 22.4278 15.9001 22.4096C15.8416 22.3914 15.7874 22.3614 15.741 22.3214L15.1604 21.8244C15.0739 21.7499 15.018 21.646 15.0037 21.5327C14.9893 21.4195 15.0174 21.3049 15.0825 21.2112C15.0825 21.2112 21.3413 14.1601 21.3588 14.1287C21.8486 13.6132 22.4667 13.2373 23.1497 13.0394C22.7925 12.8456 22.4603 12.6092 22.1602 12.3353C21.4176 12.6813 20.7709 13.2037 20.2763 13.8568L16 18.6696L11.7275 13.8611C11.2319 13.2061 10.5833 12.6826 9.8385 12.3364C9.53994 12.6089 9.20954 12.8442 8.8545 13.0374C9.53862 13.2376 10.1568 13.6171 10.6449 14.1366C10.6616 14.1652 15.3296 19.4241 15.3296 19.4241L14.3208 20.5594C14.3118 20.5696 14.303 20.5803 14.2947 20.5912C14.2656 20.6336 14.2387 20.6776 14.2143 20.7229L9.86816 15.9691C9.82388 15.9205 9.77042 15.8811 9.71085 15.8533C9.65129 15.8255 9.58681 15.8097 9.52113 15.8069C9.45545 15.8042 9.38987 15.8144 9.32816 15.8371C9.26646 15.8598 9.20986 15.8944 9.16162 15.9391C9.06395 16.0296 9.00601 16.1551 9.00043 16.2882C8.99485 16.4212 9.04208 16.5511 9.13184 16.6495L11.75 19.5133V26.4946H5.5C5.40673 26.8615 5.23627 27.2042 5 27.5H11.75C12.0202 27.4895 12.2758 27.3742 12.4625 27.1785C12.6491 26.9828 12.7523 26.7221 12.75 26.4517V20.6071C12.75 20.6071 14.8833 22.9776 15.1437 23.1607C15.4479 23.3722 15.8183 23.4668 16.1868 23.4271C16.3786 23.4059 16.5644 23.3469 16.7332 23.2533C16.902 23.1597 17.0506 23.0335 17.1702 22.882L19.25 20.6071V26.4517C19.2493 26.7176 19.3542 26.973 19.5418 27.1615C19.7293 27.3501 19.9841 27.4564 20.25 27.4572H27.0023C26.7661 27.1772 26.5945 26.8485 26.5 26.4946H20.25Z" fill="white"/>
</g>
<defs>
<clipPath id="clip0">
<rect width="32" height="32" fill="white"/>
</clipPath>
</defs>
</svg>
