<svg width="34" height="24" viewBox="0 0 34 24" fill="none" xmlns="http://www.w3.org/2000/svg">
<path d="M8.50068 7.31918C11.083 7.31918 12.5674 5.80448 13.8795 4.4676C14.8978 3.42856 15.7784 2.53164 17 2.53164C18.2039 2.53164 19.0771 3.42244 20.0875 4.45332C21.4027 5.79632 22.8925 7.31918 25.5007 7.31918C28.0823 7.31918 29.5674 5.80448 30.8795 4.4676C31.8978 3.4289 32.7787 2.53164 34 2.53164V0.932281C32.1072 0.932281 30.9029 2.16002 29.7378 3.34764C28.5416 4.56756 27.4108 5.72016 25.501 5.72016C23.5661 5.72016 22.4305 4.56144 21.2296 3.33506C20.0736 2.15356 18.8771 0.932281 17 0.932281C15.1076 0.932281 13.9026 2.16002 12.7381 3.34764C11.5413 4.56756 10.4108 5.72016 8.50068 5.72016C6.56574 5.72016 5.43048 4.56144 4.22926 3.33506C3.0719 2.15322 1.87748 0.932281 0 0.932281V2.53164C1.20394 2.53164 2.0774 3.42244 3.08618 4.45332C4.40266 5.79666 5.89288 7.31918 8.50068 7.31918Z" fill="white"/>
<path d="M11.2388 15.0461L16.2004 20.0067V7.31931H17.7998V20.0078L22.7379 15.0706L23.8688 16.2008L17.0001 23.0678L10.108 16.1773L11.2388 15.0461Z" fill="white"/>
</svg>
