<svg width="36" height="36" viewBox="0 0 36 36" fill="none" xmlns="http://www.w3.org/2000/svg">
<path d="M30.6562 33.7435H31.3594V27.8644C31.3594 25.8906 30.2027 24.0974 28.4168 23.3001L21.6984 20.295C21.4277 20.171 21.1043 20.256 20.925 20.4899L18 24.342L15.0328 20.4864C14.85 20.2489 14.5336 20.1674 14.2594 20.2915L7.58672 23.293C5.8043 24.0974 4.65117 25.887 4.65117 27.8538V33.74H5.3543V27.8538C5.3543 26.167 6.34219 24.629 7.875 23.938L14.5055 20.9577L18.0035 25.5043L21.4523 20.9612L28.1285 23.9486C29.6648 24.6361 30.6562 26.1741 30.6562 27.868V33.7435Z" fill="white"/>
<path d="M17.6555 24.9233H18.3586V33.7402H17.6555V24.9233Z" fill="white"/>
<path d="M13.5386 26.6137C13.5843 26.6137 13.6265 26.6066 13.6722 26.596L18.007 25.2919L22.3453 26.596C22.507 26.6421 22.6793 26.596 22.7988 26.4826C22.9183 26.3656 22.9676 26.2026 22.9289 26.0396L21.6914 20.444L21.0058 20.6L22.159 25.8022L18.007 24.5548L13.8515 25.8022L14.959 20.5964L14.2734 20.4476L13.0816 26.0467C13.05 26.2097 13.1027 26.3763 13.2258 26.4897C13.3136 26.5712 13.4261 26.6137 13.5386 26.6137Z" fill="white"/>
<path d="M15.975 18.7748H20.0426C20.5981 18.7748 21.0481 18.3212 21.0481 17.7613V16.0567C21.0481 15.0397 21.4735 14.0581 22.2153 13.3599C23.4739 12.187 24.1946 10.5214 24.1946 8.79205C24.1946 7.14775 23.5653 5.59559 22.4192 4.42261C21.2766 3.24962 19.7508 2.59049 18.1196 2.55859C16.4532 2.5267 14.8817 3.15394 13.6899 4.32692C12.4911 5.50699 11.8266 7.09105 11.8196 8.78851C11.8125 10.5391 12.5157 12.1657 13.8024 13.367C14.5407 14.0581 14.9661 15.0397 14.9661 16.0603V17.7648C14.9696 18.3212 15.4196 18.7748 15.975 18.7748ZM18 3.26734C18.0352 3.26734 18.0739 3.26734 18.109 3.26734C21.0762 3.3205 23.4915 5.79758 23.4915 8.79205C23.4915 10.323 22.8516 11.8007 21.7372 12.8426C20.8512 13.6718 20.345 14.8448 20.345 16.0567V17.7613C20.345 17.9278 20.2079 18.066 20.0426 18.066H15.975C15.8098 18.066 15.6727 17.9278 15.6727 17.7613V16.0567C15.6727 14.8412 15.1664 13.6683 14.284 12.8461C13.145 11.7794 12.5192 10.3407 12.5262 8.79205C12.5332 7.28596 13.1203 5.88263 14.1856 4.83368C15.2121 3.82017 16.5657 3.26734 18 3.26734Z" fill="white"/>
<path d="M17.3776 20.0328H18.6362C18.9105 20.0328 19.1671 19.884 19.3042 19.6395L20.1831 18.066H15.8308L16.7097 19.6395C16.8468 19.884 17.1034 20.0328 17.3776 20.0328ZM18.9808 18.7748L18.6925 19.2922C18.6819 19.3134 18.6608 19.3241 18.6362 19.3241H17.3776C17.3565 19.3241 17.3319 19.3099 17.3214 19.2922L17.0331 18.7748H18.9808Z" fill="white"/>
<path d="M26.0755 8.43402H27.5063V9.14277H26.0755V8.43402Z" fill="white"/>
<path d="M8.51128 8.43402H9.94214V9.14277H8.51128V8.43402Z" fill="white"/>
<path d="M24.2666 13.9072L24.6484 13.3121L25.8824 14.1166L25.5005 14.7117L24.2666 13.9072Z" fill="white"/>
<path d="M10.133 3.45994L10.5148 2.86481L11.7488 3.66929L11.3669 4.26443L10.133 3.45994Z" fill="white"/>
<path d="M10.1357 14.1173L11.3696 13.3128L11.7515 13.9079L10.5175 14.7124L10.1357 14.1173Z" fill="white"/>
<path d="M24.2678 3.66954L25.5018 2.86505L25.8836 3.46019L24.6497 4.26468L24.2678 3.66954Z" fill="white"/>
</svg>
