<svg width="390" height="292" viewBox="0 0 390 292" fill="none" xmlns="http://www.w3.org/2000/svg">
<path d="M49.496 19.54C46.184 17.516 42.6573 15.9213 38.916 14.756C35.236 13.5293 32.0773 12.916 29.44 12.916C26.9253 12.916 24.932 13.376 23.46 14.296C21.988 15.216 21.252 16.5653 21.252 18.344C21.252 20.6133 22.2947 22.3613 24.38 23.588C26.5267 24.7533 29.808 25.98 34.224 27.268C38.64 28.556 42.2587 29.844 45.08 31.132C47.9627 32.42 50.416 34.352 52.44 36.928C54.464 39.504 55.476 42.908 55.476 47.14C55.476 51.2493 54.372 54.8067 52.164 57.812C50.0173 60.756 47.0427 62.9947 43.24 64.528C39.4373 66.0613 35.1133 66.828 30.268 66.828C25.0547 66.828 19.9333 65.908 14.904 64.068C9.87467 62.228 5.52 59.7133 1.84 56.524L7.636 44.656C10.8867 47.6 14.628 49.9613 18.86 51.74C23.092 53.5187 26.956 54.408 30.452 54.408C33.4573 54.408 35.788 53.856 37.444 52.752C39.1613 51.648 40.02 50.0533 40.02 47.968C40.02 46.312 39.4373 44.9627 38.272 43.92C37.168 42.816 35.7267 41.9267 33.948 41.252C32.2307 40.5773 29.8387 39.8107 26.772 38.952C22.356 37.7253 18.7373 36.4987 15.916 35.272C13.156 34.0453 10.764 32.1747 8.74 29.66C6.716 27.1453 5.704 23.8027 5.704 19.632C5.704 15.768 6.74667 12.3947 8.832 9.512C10.9173 6.568 13.8307 4.32933 17.572 2.796C21.3133 1.20133 25.668 0.403995 30.636 0.403995C35.052 0.403995 39.4067 1.048 43.7 2.336C47.9933 3.624 51.796 5.34133 55.108 7.488L49.496 19.54ZM59.3141 1.6H113.134V13.928H93.4461V66H78.9101V13.928H59.3141V1.6ZM161.742 66L156.682 53.488H126.874L121.814 66H106.818L134.786 1.6H149.782L177.29 66H161.742ZM131.658 41.804H151.99L141.87 16.78L131.658 41.804ZM223.546 66L213.334 47.6H211.954H198.522V66H183.986V1.6H211.954C220.357 1.6 226.858 3.56266 231.458 7.488C236.058 11.352 238.358 16.8413 238.358 23.956C238.358 28.924 237.316 33.1867 235.23 36.744C233.206 40.24 230.232 42.908 226.306 44.748L240.014 66H223.546ZM198.522 35.456H211.954C216.002 35.456 219.1 34.536 221.246 32.696C223.454 30.7947 224.558 28.0347 224.558 24.416C224.558 20.8587 223.454 18.1907 221.246 16.412C219.1 14.572 216.002 13.652 211.954 13.652H198.522V35.456ZM244.213 1.6H298.033V13.928H278.345V66H263.809V13.928H244.213V1.6ZM0.736 225.6H54.556V237.928H34.868V290H20.332V237.928H0.736V225.6ZM88.826 224.588C95.266 224.588 101.123 226.029 106.398 228.912C111.673 231.795 115.813 235.781 118.818 240.872C121.885 245.901 123.418 251.513 123.418 257.708C123.418 263.903 121.885 269.545 118.818 274.636C115.813 279.727 111.673 283.744 106.398 286.688C101.123 289.571 95.266 291.012 88.826 291.012C82.386 291.012 76.5287 289.571 71.254 286.688C65.9793 283.744 61.8087 279.757 58.742 274.728C55.7367 269.637 54.234 263.964 54.234 257.708C54.234 251.513 55.7367 245.901 58.742 240.872C61.8087 235.781 65.9487 231.795 71.162 228.912C76.4367 226.029 82.3247 224.588 88.826 224.588ZM89.01 237.284C85.4527 237.284 82.1407 238.204 79.074 240.044C76.0073 241.823 73.5847 244.276 71.806 247.404C70.0273 250.532 69.138 253.967 69.138 257.708C69.138 261.511 70.0273 264.976 71.806 268.104C73.646 271.232 76.0687 273.716 79.074 275.556C82.1407 277.396 85.4527 278.316 89.01 278.316C92.5673 278.316 95.818 277.427 98.762 275.648C101.767 273.808 104.129 271.324 105.846 268.196C107.625 265.007 108.514 261.511 108.514 257.708C108.514 253.967 107.625 250.532 105.846 247.404C104.129 244.276 101.767 241.823 98.762 240.044C95.818 238.204 92.5673 237.284 89.01 237.284ZM160.279 225.6C166.842 225.6 172.699 226.98 177.851 229.74C183.003 232.439 186.99 236.241 189.811 241.148C192.694 245.993 194.135 251.544 194.135 257.8C194.135 264.056 192.663 269.637 189.719 274.544C186.836 279.389 182.788 283.192 177.575 285.952C172.362 288.651 166.412 290 159.727 290H132.955V225.6H160.279ZM160.647 277.764C164.204 277.764 167.394 276.936 170.215 275.28C173.098 273.563 175.336 271.201 176.931 268.196C178.526 265.191 179.323 261.756 179.323 257.892C179.323 254.028 178.464 250.563 176.747 247.496C175.091 244.429 172.791 242.068 169.847 240.412C166.964 238.695 163.683 237.836 160.003 237.836H147.491V277.764H160.647ZM249.519 290L244.459 277.488H214.651L209.591 290H194.595L222.563 225.6H237.559L265.067 290H249.519ZM219.435 265.804H239.767L229.647 240.78L219.435 265.804ZM321.376 225.6L297.916 269.208V290H283.38V269.576L259.552 225.6H274.18L290.648 254.488L306.748 225.6H321.376Z" fill="white"/>
<path d="M7.084 113.6H21.62V140.464H50.784V113.6H65.32V178H50.784V152.608H21.62V178H7.084V113.6ZM92.9301 151.412C92.9301 156.012 94.2181 159.661 96.7941 162.36C99.4314 164.997 102.927 166.316 107.282 166.316C111.514 166.316 114.887 164.997 117.402 162.36C119.917 159.723 121.174 156.073 121.174 151.412V113.6H135.71V151.412C135.71 157.055 134.545 161.961 132.214 166.132C129.945 170.241 126.663 173.431 122.37 175.7C118.077 177.908 113.017 179.012 107.19 179.012C101.363 179.012 96.2727 177.908 91.9181 175.7C87.5634 173.431 84.2207 170.241 81.8901 166.132C79.5594 161.961 78.3941 157.055 78.3941 151.412V113.6H92.9301V151.412ZM191.18 131.54C187.868 129.516 184.341 127.921 180.6 126.756C176.92 125.529 173.761 124.916 171.124 124.916C168.609 124.916 166.616 125.376 165.144 126.296C163.672 127.216 162.936 128.565 162.936 130.344C162.936 132.613 163.978 134.361 166.064 135.588C168.21 136.753 171.492 137.98 175.908 139.268C180.324 140.556 183.942 141.844 186.764 143.132C189.646 144.42 192.1 146.352 194.124 148.928C196.148 151.504 197.16 154.908 197.16 159.14C197.16 163.249 196.056 166.807 193.848 169.812C191.701 172.756 188.726 174.995 184.924 176.528C181.121 178.061 176.797 178.828 171.952 178.828C166.738 178.828 161.617 177.908 156.588 176.068C151.558 174.228 147.204 171.713 143.524 168.524L149.32 156.656C152.57 159.6 156.312 161.961 160.544 163.74C164.776 165.519 168.64 166.408 172.136 166.408C175.141 166.408 177.472 165.856 179.128 164.752C180.845 163.648 181.704 162.053 181.704 159.968C181.704 158.312 181.121 156.963 179.956 155.92C178.852 154.816 177.41 153.927 175.632 153.252C173.914 152.577 171.522 151.811 168.456 150.952C164.04 149.725 160.421 148.499 157.6 147.272C154.84 146.045 152.448 144.175 150.424 141.66C148.4 139.145 147.388 135.803 147.388 131.632C147.388 127.768 148.43 124.395 150.516 121.512C152.601 118.568 155.514 116.329 159.256 114.796C162.997 113.201 167.352 112.404 172.32 112.404C176.736 112.404 181.09 113.048 185.384 114.336C189.677 115.624 193.48 117.341 196.792 119.488L191.18 131.54ZM200.998 113.6H254.818V125.928H235.13V178H220.594V125.928H200.998V113.6ZM262.6 113.6H277.136V165.304H304.736V178H262.6V113.6ZM313.361 113.6H327.897V178H313.361V113.6ZM386.729 113.6H400.529V178H387.281L356.093 136.6V178H342.201V113.6H355.449L386.729 155.184V113.6ZM457.945 145.524H470.549V170.548C467.114 173.063 463.005 175.117 458.221 176.712C453.437 178.245 448.837 179.012 444.421 179.012C437.981 179.012 432.154 177.571 426.941 174.688C421.728 171.744 417.618 167.757 414.613 162.728C411.608 157.637 410.105 151.964 410.105 145.708C410.105 139.513 411.638 133.901 414.705 128.872C417.772 123.781 421.973 119.795 427.309 116.912C432.706 114.029 438.686 112.588 445.249 112.588C450.033 112.588 454.694 113.447 459.233 115.164C463.833 116.881 467.789 119.212 471.101 122.156L462.913 132.552C460.521 130.283 457.761 128.504 454.633 127.216C451.505 125.928 448.377 125.284 445.249 125.284C441.508 125.284 438.073 126.204 434.945 128.044C431.878 129.823 429.456 132.276 427.677 135.404C425.898 138.471 425.009 141.905 425.009 145.708C425.009 149.511 425.898 153.007 427.677 156.196C429.517 159.324 431.97 161.808 435.037 163.648C438.165 165.427 441.6 166.316 445.341 166.316C447.242 166.316 449.297 166.009 451.505 165.396C453.713 164.721 455.86 163.832 457.945 162.728V145.524Z" fill="#55D3EE"/>
</svg>
