<svg width="24" height="24" viewBox="0 0 24 24" fill="none" xmlns="http://www.w3.org/2000/svg">
<path d="M23.68 12.0002C23.68 5.4593 18.3764 0.160156 11.84 0.160156C5.29914 0.160156 0 5.4593 0 12.0002C0 17.9083 4.32826 22.8071 9.99 23.6944V15.4234H6.98338V12.0009H9.99V9.39092C9.99 6.42426 11.7549 4.7859 14.4603 4.7859C15.7561 4.7859 17.1125 5.01678 17.1125 5.01678V7.93016H15.617C14.1488 7.93016 13.69 8.84406 13.69 9.78016V12.0002H16.9734L16.4458 15.4227H13.69V23.6936C19.3473 22.8064 23.68 17.9076 23.68 11.9994V12.0002Z" fill="white"/>
</svg>
