<svg width="25" height="24" viewBox="0 0 25 24" fill="none" xmlns="http://www.w3.org/2000/svg">
<path d="M20.5323 20.3407H17.0298V14.8447C17.0298 13.5342 17.0025 11.8499 15.1983 11.8499C13.372 11.8499 13.0938 13.2715 13.0938 14.7478V20.34H9.58692V9.03942H12.9554V10.5808H13.0005C13.4712 9.69062 14.616 8.75452 16.3239 8.75452C19.8766 8.75452 20.536 11.0937 20.536 14.1351V20.34L20.5323 20.3407ZM5.62496 7.49504C5.35729 7.49513 5.09222 7.44242 4.84495 7.33992C4.59768 7.23742 4.37305 7.08714 4.18395 6.89769C3.99485 6.70824 3.84498 6.48335 3.74292 6.23589C3.64087 5.98843 3.58864 5.72327 3.58922 5.4556C3.58966 5.0527 3.70955 4.65899 3.93374 4.32423C4.15792 3.98947 4.47633 3.7287 4.84871 3.57489C5.22109 3.42108 5.63071 3.38114 6.02579 3.46012C6.42087 3.5391 6.78365 3.73345 7.06828 4.01859C7.35291 4.30374 7.5466 4.66688 7.62486 5.0621C7.70312 5.45732 7.66244 5.86687 7.50795 6.23896C7.35347 6.61106 7.09212 6.929 6.75695 7.15258C6.42179 7.37615 6.02786 7.49533 5.62496 7.49504ZM7.38172 20.3407H3.86746V9.04016H7.38172V20.3407ZM22.2905 0.160156H2.10626C1.14204 0.160156 0.359863 0.923096 0.359863 1.86734V22.1337C0.359863 23.078 1.14204 23.8409 2.10626 23.8409H22.2868C23.2495 23.8409 24.0399 23.078 24.0399 22.1337V1.86734C24.0399 0.923096 23.2495 0.160156 22.2868 0.160156H22.2905Z" fill="white"/>
</svg>
