<svg width="25" height="24" viewBox="0 0 25 24" fill="none" xmlns="http://www.w3.org/2000/svg">
<path d="M24.2837 7.14942C24.2704 6.15515 24.084 5.17076 23.7327 4.24029C23.4281 3.45544 22.9628 2.74266 22.3667 2.14749C21.7705 1.55232 21.0565 1.08784 20.2704 0.783729C19.3503 0.438935 18.3784 0.252499 17.3958 0.232359C16.1308 0.17591 15.7298 0.160156 12.5186 0.160156C9.30746 0.160156 8.89587 0.160156 7.64007 0.232359C6.658 0.252647 5.68648 0.439081 4.76686 0.783729C3.98059 1.08762 3.26651 1.55203 2.67032 2.14723C2.07412 2.74243 1.60894 3.45532 1.30454 4.24029C0.958483 5.1581 0.772142 6.12822 0.75357 7.10872C0.697026 8.37294 0.679932 8.77333 0.679932 11.9792C0.679932 15.185 0.679932 15.5946 0.75357 16.8496C0.773295 17.8315 0.958705 18.8004 1.30454 19.7206C1.60946 20.5054 2.07498 21.218 2.67137 21.8129C3.26776 22.4079 3.98191 22.8721 4.76818 23.1759C5.68528 23.5345 6.65697 23.7343 7.64139 23.7666C8.90771 23.8231 9.30877 23.8402 12.5199 23.8402C15.7311 23.8402 16.1427 23.8402 17.3985 23.7666C18.381 23.7473 19.353 23.5613 20.273 23.2166C21.059 22.9121 21.7727 22.4475 22.3689 21.8524C22.965 21.2573 23.4304 20.5447 23.7353 19.76C24.0812 18.8411 24.2666 17.8722 24.2863 16.889C24.3428 15.6261 24.3599 15.2257 24.3599 12.0185C24.3573 8.81272 24.3573 8.40576 24.2837 7.14942ZM12.5107 18.0416C9.15229 18.0416 6.43162 15.3254 6.43162 11.9726C6.43162 8.61974 9.15229 5.90359 12.5107 5.90359C14.123 5.90359 15.6693 6.543 16.8093 7.68116C17.9494 8.81932 18.5898 10.363 18.5898 11.9726C18.5898 13.5822 17.9494 15.1259 16.8093 16.264C15.6693 17.4022 14.123 18.0416 12.5107 18.0416ZM18.8318 7.09428C18.0468 7.09428 17.4143 6.46152 17.4143 5.6791C17.4143 5.49334 17.4509 5.3094 17.5221 5.13779C17.5933 4.96617 17.6977 4.81023 17.8293 4.67888C17.9608 4.54753 18.117 4.44334 18.2889 4.37225C18.4608 4.30116 18.6451 4.26458 18.8311 4.26458C19.0172 4.26458 19.2015 4.30116 19.3734 4.37225C19.5453 4.44334 19.7015 4.54753 19.833 4.67888C19.9646 4.81023 20.069 4.96617 20.1402 5.13779C20.2114 5.3094 20.248 5.49334 20.248 5.6791C20.248 6.46152 19.6142 7.09428 18.8318 7.09428Z" fill="white"/>
</svg>
