<svg width="24" height="24" viewBox="0 0 24 24" fill="none" xmlns="http://www.w3.org/2000/svg">
<path d="M11.8798 0.160156C5.34137 0.160156 0.0397949 5.46173 0.0397949 12.0002C0.0397949 18.5386 5.34137 23.8402 11.8798 23.8402C18.4182 23.8402 23.7198 18.5386 23.7198 12.0002C23.7198 5.46173 18.4182 0.160156 11.8798 0.160156ZM17.5699 9.08508C17.5778 9.2093 17.5778 9.3388 17.5778 9.46566C17.5778 13.3454 14.6231 17.8144 9.22372 17.8144C7.55872 17.8144 6.01529 17.3308 4.71501 16.4983C4.95287 16.5247 5.18015 16.5353 5.4233 16.5353C6.79758 16.5353 8.06087 16.0702 9.06779 15.2826C7.77808 15.2562 6.69451 14.4104 6.32451 13.2476C6.77644 13.3137 7.18344 13.3137 7.64858 13.1947C6.9845 13.0598 6.38761 12.6991 5.95931 12.174C5.53101 11.6489 5.29772 10.9917 5.29908 10.314V10.277C5.68758 10.4964 6.14479 10.6312 6.62315 10.6497C6.22102 10.3817 5.89123 10.0186 5.66303 9.59259C5.43483 9.16661 5.31526 8.69091 5.31494 8.20766C5.31494 7.66058 5.45765 7.16108 5.71401 6.72766C6.45111 7.63505 7.3709 8.37717 8.41359 8.90581C9.45629 9.43444 10.5986 9.73775 11.7662 9.79601C11.3512 7.80066 12.8418 6.18587 14.6337 6.18587C15.4794 6.18587 16.2405 6.54001 16.777 7.11087C17.4404 6.98666 18.0747 6.73823 18.6402 6.40523C18.4209 7.08444 17.961 7.65794 17.3505 8.02001C17.9425 7.95658 18.5134 7.79273 19.0419 7.5628C18.6429 8.14951 18.1434 8.67016 17.5699 9.08508Z" fill="white"/>
</svg>
