<svg width="391" height="292" viewBox="0 0 391 292" fill="none" xmlns="http://www.w3.org/2000/svg">
<path d="M43.32 45.392C43.32 52.0773 41.388 57.2907 37.524 61.032C33.7213 64.7733 28.4467 66.644 21.7 66.644C13.3587 66.644 6.336 63.3013 0.632 56.616L7.348 46.312C9.556 48.6427 11.856 50.4213 14.248 51.648C16.7013 52.8747 18.94 53.488 20.964 53.488C23.4173 53.488 25.3187 52.752 26.668 51.28C28.0173 49.808 28.692 47.7227 28.692 45.024V13.928H6.52V1.6H43.32V45.392ZM86.3221 0.587998C92.7621 0.587998 98.6194 2.02933 103.894 4.912C109.169 7.79466 113.309 11.7813 116.314 16.872C119.381 21.9013 120.914 27.5133 120.914 33.708C120.914 39.9027 119.381 45.5453 116.314 50.636C113.309 55.7267 109.169 59.744 103.894 62.688C98.6194 65.5707 92.7621 67.012 86.3221 67.012C79.8821 67.012 74.0248 65.5707 68.7501 62.688C63.4754 59.744 59.3048 55.7573 56.2381 50.728C53.2328 45.6373 51.7301 39.964 51.7301 33.708C51.7301 27.5133 53.2328 21.9013 56.2381 16.872C59.3048 11.7813 63.4448 7.79466 68.6581 4.912C73.9328 2.02933 79.8208 0.587998 86.3221 0.587998ZM86.5061 13.284C82.9488 13.284 79.6368 14.204 76.5701 16.044C73.5034 17.8227 71.0808 20.276 69.3021 23.404C67.5234 26.532 66.6341 29.9667 66.6341 33.708C66.6341 37.5107 67.5234 40.976 69.3021 44.104C71.1421 47.232 73.5648 49.716 76.5701 51.556C79.6368 53.396 82.9488 54.316 86.5061 54.316C90.0634 54.316 93.3141 53.4267 96.2581 51.648C99.2634 49.808 101.625 47.324 103.342 44.196C105.121 41.0067 106.01 37.5107 106.01 33.708C106.01 29.9667 105.121 26.532 103.342 23.404C101.625 20.276 99.2634 17.8227 96.2581 16.044C93.3141 14.204 90.0634 13.284 86.5061 13.284ZM130.451 1.6H144.987V66H130.451V1.6ZM203.819 1.6H217.619V66H204.371L173.183 24.6V66H159.291V1.6H172.539L203.819 43.184V1.6ZM247.009 1.6H300.829V13.928H281.141V66H266.605V13.928H247.009V1.6ZM308.611 1.6H323.147V28.464H352.311V1.6H366.847V66H352.311V40.608H323.147V66H308.611V1.6ZM381.025 1.6H430.061V13.652H395.561V27.636H426.565V39.688H395.561V53.948H431.073V66H381.025V1.6ZM38.076 224.588C44.516 224.588 50.3733 226.029 55.648 228.912C60.9227 231.795 65.0627 235.781 68.068 240.872C71.1347 245.901 72.668 251.513 72.668 257.708C72.668 263.903 71.1347 269.545 68.068 274.636C65.0627 279.727 60.9227 283.744 55.648 286.688C50.3733 289.571 44.516 291.012 38.076 291.012C31.636 291.012 25.7787 289.571 20.504 286.688C15.2293 283.744 11.0587 279.757 7.992 274.728C4.98667 269.637 3.484 263.964 3.484 257.708C3.484 251.513 4.98667 245.901 7.992 240.872C11.0587 235.781 15.1987 231.795 20.412 228.912C25.6867 226.029 31.5747 224.588 38.076 224.588ZM38.26 237.284C34.7027 237.284 31.3907 238.204 28.324 240.044C25.2573 241.823 22.8347 244.276 21.056 247.404C19.2773 250.532 18.388 253.967 18.388 257.708C18.388 261.511 19.2773 264.976 21.056 268.104C22.896 271.232 25.3187 273.716 28.324 275.556C31.3907 277.396 34.7027 278.316 38.26 278.316C41.8173 278.316 45.068 277.427 48.012 275.648C51.0173 273.808 53.3787 271.324 55.096 268.196C56.8747 265.007 57.764 261.511 57.764 257.708C57.764 253.967 56.8747 250.532 55.096 247.404C53.3787 244.276 51.0173 241.823 48.012 240.044C45.068 238.204 41.8173 237.284 38.26 237.284ZM82.2051 225.6H128.481L128.389 237.652H96.7411V253.476H125.813V265.62H96.7411V290H82.2051V225.6ZM158.482 225.6H173.018V277.304H200.618V290H158.482V225.6ZM209.244 225.6H258.28V237.652H223.78V251.636H254.784V263.688H223.78V277.948H259.292V290H209.244V225.6ZM313.937 257.524H326.541V282.548C323.107 285.063 318.997 287.117 314.213 288.712C309.429 290.245 304.829 291.012 300.413 291.012C293.973 291.012 288.147 289.571 282.933 286.688C277.72 283.744 273.611 279.757 270.605 274.728C267.6 269.637 266.097 263.964 266.097 257.708C266.097 251.513 267.631 245.901 270.697 240.872C273.764 235.781 277.965 231.795 283.301 228.912C288.699 226.029 294.679 224.588 301.241 224.588C306.025 224.588 310.687 225.447 315.225 227.164C319.825 228.881 323.781 231.212 327.093 234.156L318.905 244.552C316.513 242.283 313.753 240.504 310.625 239.216C307.497 237.928 304.369 237.284 301.241 237.284C297.5 237.284 294.065 238.204 290.937 240.044C287.871 241.823 285.448 244.276 283.669 247.404C281.891 250.471 281.001 253.905 281.001 257.708C281.001 261.511 281.891 265.007 283.669 268.196C285.509 271.324 287.963 273.808 291.029 275.648C294.157 277.427 297.592 278.316 301.333 278.316C303.235 278.316 305.289 278.009 307.497 277.396C309.705 276.721 311.852 275.832 313.937 274.728V257.524ZM339.248 225.6H388.284V237.652H353.784V251.636H384.788V263.688H353.784V277.948H389.296V290H339.248V225.6ZM445.229 225.6H459.029V290H445.781L414.593 248.6V290H400.701V225.6H413.949L445.229 267.184V225.6ZM500.529 225.6C507.092 225.6 512.949 226.98 518.101 229.74C523.253 232.439 527.24 236.241 530.061 241.148C532.944 245.993 534.385 251.544 534.385 257.8C534.385 264.056 532.913 269.637 529.969 274.544C527.086 279.389 523.038 283.192 517.825 285.952C512.612 288.651 506.662 290 499.977 290H473.205V225.6H500.529ZM500.897 277.764C504.454 277.764 507.644 276.936 510.465 275.28C513.348 273.563 515.586 271.201 517.181 268.196C518.776 265.191 519.573 261.756 519.573 257.892C519.573 254.028 518.714 250.563 516.997 247.496C515.341 244.429 513.041 242.068 510.097 240.412C507.214 238.695 503.933 237.836 500.253 237.836H487.741V277.764H500.897ZM586.324 243.54C583.012 241.516 579.485 239.921 575.744 238.756C572.064 237.529 568.905 236.916 566.268 236.916C563.753 236.916 561.76 237.376 560.288 238.296C558.816 239.216 558.08 240.565 558.08 242.344C558.08 244.613 559.123 246.361 561.208 247.588C563.355 248.753 566.636 249.98 571.052 251.268C575.468 252.556 579.087 253.844 581.908 255.132C584.791 256.42 587.244 258.352 589.268 260.928C591.292 263.504 592.304 266.908 592.304 271.14C592.304 275.249 591.2 278.807 588.992 281.812C586.845 284.756 583.871 286.995 580.068 288.528C576.265 290.061 571.941 290.828 567.096 290.828C561.883 290.828 556.761 289.908 551.732 288.068C546.703 286.228 542.348 283.713 538.668 280.524L544.464 268.656C547.715 271.6 551.456 273.961 555.688 275.74C559.92 277.519 563.784 278.408 567.28 278.408C570.285 278.408 572.616 277.856 574.272 276.752C575.989 275.648 576.848 274.053 576.848 271.968C576.848 270.312 576.265 268.963 575.1 267.92C573.996 266.816 572.555 265.927 570.776 265.252C569.059 264.577 566.667 263.811 563.6 262.952C559.184 261.725 555.565 260.499 552.744 259.272C549.984 258.045 547.592 256.175 545.568 253.66C543.544 251.145 542.532 247.803 542.532 243.632C542.532 239.768 543.575 236.395 545.66 233.512C547.745 230.568 550.659 228.329 554.4 226.796C558.141 225.201 562.496 224.404 567.464 224.404C571.88 224.404 576.235 225.048 580.528 226.336C584.821 227.624 588.624 229.341 591.936 231.488L586.324 243.54Z" fill="white"/>
<path d="M8.084 113.6H22.62V165.304H50.22V178H8.084V113.6ZM58.8457 113.6H107.882V125.652H73.3817V139.636H104.386V151.688H73.3817V165.948H108.894V178H58.8457V113.6ZM167.863 178L162.803 165.488H132.995L127.935 178H112.939L140.907 113.6H155.903L183.411 178H167.863ZM137.779 153.804H158.111L147.991 128.78L137.779 153.804ZM231.64 145.524H244.244V170.548C240.81 173.063 236.7 175.117 231.916 176.712C227.132 178.245 222.532 179.012 218.116 179.012C211.676 179.012 205.85 177.571 200.636 174.688C195.423 171.744 191.314 167.757 188.308 162.728C185.303 157.637 183.8 151.964 183.8 145.708C183.8 139.513 185.334 133.901 188.4 128.872C191.467 123.781 195.668 119.795 201.004 116.912C206.402 114.029 212.382 112.588 218.944 112.588C223.728 112.588 228.39 113.447 232.928 115.164C237.528 116.881 241.484 119.212 244.796 122.156L236.608 132.552C234.216 130.283 231.456 128.504 228.328 127.216C225.2 125.928 222.072 125.284 218.944 125.284C215.203 125.284 211.768 126.204 208.64 128.044C205.574 129.823 203.151 132.276 201.372 135.404C199.594 138.471 198.704 141.905 198.704 145.708C198.704 149.511 199.594 153.007 201.372 156.196C203.212 159.324 205.666 161.808 208.732 163.648C211.86 165.427 215.295 166.316 219.036 166.316C220.938 166.316 222.992 166.009 225.2 165.396C227.408 164.721 229.555 163.832 231.64 162.728V145.524ZM270.383 151.412C270.383 156.012 271.671 159.661 274.247 162.36C276.885 164.997 280.381 166.316 284.735 166.316C288.967 166.316 292.341 164.997 294.855 162.36C297.37 159.723 298.627 156.073 298.627 151.412V113.6H313.163V151.412C313.163 157.055 311.998 161.961 309.667 166.132C307.398 170.241 304.117 173.431 299.823 175.7C295.53 177.908 290.47 179.012 284.643 179.012C278.817 179.012 273.726 177.908 269.371 175.7C265.017 173.431 261.674 170.241 259.343 166.132C257.013 161.961 255.847 157.055 255.847 151.412V113.6H270.383V151.412ZM326.221 113.6H375.257V125.652H340.757V139.636H371.761V151.688H340.757V165.948H376.269V178H326.221V113.6Z" fill="#ECBD84"/>
</svg>
