<svg width="22" height="30" viewBox="0 0 22 30" fill="none" xmlns="http://www.w3.org/2000/svg">
<path d="M11.0001 28.5373C10.7751 28.5373 10.5501 28.4248 10.4001 28.2373L2.71257 18.1873C-0.137427 14.4748 -0.137427 9.26228 2.71257 5.54978C4.70007 2.96228 7.70007 1.46228 11.0001 1.46228C14.3001 1.46228 17.3001 2.96228 19.2876 5.54978C22.1376 9.26228 22.1376 14.4748 19.2876 18.1873L11.6001 28.2373C11.4501 28.4248 11.2251 28.5373 11.0001 28.5373ZM11.0001 2.96228C8.18757 2.96228 5.63757 4.23728 3.91257 6.44978C1.47507 9.63728 1.47507 14.0998 3.91257 17.2873L11.0001 26.5498L18.0876 17.2873C20.5251 14.0998 20.5251 9.63728 18.0876 6.44978C16.3626 4.23728 13.8126 2.96228 11.0001 2.96228Z" fill="white" stroke="white" stroke-miterlimit="10"/>
</svg>
