<svg width="400" height="24" viewBox="0 0 400 24" fill="none" xmlns="http://www.w3.org/2000/svg">
<path d="M30.4685 0.36565H35.803L28.0468 23.6343H22.7123L17.9015 6.84765L13.0252 23.6343H7.72349L0 0.36565H5.56353L10.538 18.1163L15.4797 0.36565H20.5523L25.5595 18.1163L30.4685 0.36565Z" fill="white"/>
<path d="M53.5086 23.6343L51.7086 19.1136H41.1052L39.3052 23.6343H33.9708L43.9197 0.36565H49.2541L59.0394 23.6343H53.5086ZM42.807 14.892H50.0396L46.4397 5.85042L42.807 14.892Z" fill="white"/>
<path d="M56.7664 0.36565H75.9115V4.81994H68.908V23.6343H63.7372V4.81994H56.7664V0.36565Z" fill="white"/>
<path d="M78.6798 0.36565H96.1231V4.72022H83.8506V9.77285H94.8795V14.1274H83.8506V19.2798H96.4831V23.6343H78.6798V0.36565Z" fill="white"/>
<path d="M114.613 23.6343L110.98 16.9862H110.489H105.711V23.6343H100.54V0.36565H110.489C113.478 0.36565 115.791 1.07479 117.427 2.49307C119.063 3.8892 119.882 5.87258 119.882 8.44321C119.882 10.2382 119.511 11.7784 118.769 13.0637C118.049 14.3269 116.991 15.2909 115.594 15.9557L120.471 23.6343H114.613ZM105.711 12.5983H110.489C111.929 12.5983 113.031 12.2659 113.794 11.6011C114.58 10.9141 114.973 9.9169 114.973 8.60942C114.973 7.3241 114.58 6.36011 113.794 5.71745C113.031 5.05263 111.929 4.72022 110.489 4.72022H105.711V12.5983Z" fill="white"/>
<path d="M142.561 0C144.852 0 146.936 0.520775 148.812 1.56233C150.689 2.60388 152.161 4.04432 153.23 5.88366C154.321 7.70083 154.867 9.72853 154.867 11.9668C154.867 14.205 154.321 16.2438 153.23 18.0831C152.161 19.9224 150.689 21.374 148.812 22.4377C146.936 23.4792 144.852 24 142.561 24C140.271 24 138.187 23.4792 136.311 22.4377C134.434 21.374 132.951 19.9335 131.86 18.1163C130.791 16.277 130.256 14.2271 130.256 11.9668C130.256 9.72853 130.791 7.70083 131.86 5.88366C132.951 4.04432 134.423 2.60388 136.278 1.56233C138.154 0.520775 140.249 0 142.561 0ZM142.627 4.58726C141.361 4.58726 140.183 4.91967 139.092 5.58449C138.002 6.22715 137.14 7.11357 136.507 8.24377C135.874 9.37396 135.558 10.615 135.558 11.9668C135.558 13.3407 135.874 14.5928 136.507 15.723C137.162 16.8532 138.023 17.7507 139.092 18.4155C140.183 19.0803 141.361 19.4127 142.627 19.4127C143.892 19.4127 145.049 19.0914 146.096 18.4488C147.165 17.7839 148.005 16.8864 148.616 15.7562C149.249 14.6039 149.565 13.3407 149.565 11.9668C149.565 10.615 149.249 9.37396 148.616 8.24377C148.005 7.11357 147.165 6.22715 146.096 5.58449C145.049 4.91967 143.892 4.58726 142.627 4.58726Z" fill="white"/>
<path d="M158.259 0.36565H174.721L174.688 4.72022H163.43V10.4377H173.772V14.8255H163.43V23.6343H158.259V0.36565Z" fill="white"/>
<path d="M202.313 23.6343L200.513 19.1136H189.909L188.109 23.6343H182.775L192.724 0.36565H198.058L207.843 23.6343H202.313ZM191.611 14.892H198.844L195.244 5.85042L191.611 14.892Z" fill="white"/>
<path d="M220.764 0.36565C223.294 0.36565 225.291 0.886426 226.753 1.92798C228.214 2.96953 228.945 4.38781 228.945 6.18283C228.945 7.42382 228.585 8.5097 227.865 9.44044C227.167 10.349 226.207 10.9695 224.985 11.3019C226.469 11.59 227.636 12.2659 228.487 13.3296C229.338 14.3712 229.763 15.6565 229.763 17.1856C229.763 19.1801 228.989 20.7535 227.44 21.9058C225.891 23.0582 223.785 23.6343 221.124 23.6343H210.226V0.36565H220.764ZM220.502 9.73961C221.484 9.73961 222.247 9.51801 222.793 9.07479C223.36 8.60942 223.644 7.96676 223.644 7.14681C223.644 6.34903 223.36 5.72853 222.793 5.28532C222.247 4.8421 221.484 4.63158 220.502 4.65374H215.396V9.73961H220.502ZM220.502 19.3463C221.724 19.3463 222.684 19.1025 223.382 18.615C224.08 18.1053 224.429 17.4072 224.429 16.5208C224.429 15.6787 224.08 15.0139 223.382 14.5263C222.684 14.0388 221.724 13.8061 220.502 13.8283H215.396V19.3463H220.502Z" fill="white"/>
<path d="M238.302 14.0277C238.302 15.6898 238.76 17.0083 239.677 17.9834C240.615 18.9363 241.859 19.4127 243.408 19.4127C244.913 19.4127 246.113 18.9363 247.008 17.9834C247.902 17.0305 248.349 15.7119 248.349 14.0277V0.36565H253.52V14.0277C253.52 16.0665 253.106 17.8393 252.277 19.3463C251.469 20.831 250.302 21.9834 248.775 22.8033C247.248 23.6011 245.448 24 243.375 24C241.302 24 239.491 23.6011 237.942 22.8033C236.393 21.9834 235.204 20.831 234.375 19.3463C233.546 17.8393 233.131 16.0665 233.131 14.0277V0.36565H238.302V14.0277Z" fill="white"/>
<path d="M274.005 0.36565H278.914V23.6343H274.201L263.107 8.6759V23.6343H258.165V0.36565H262.878L274.005 15.3906V0.36565Z" fill="white"/>
<path d="M293.676 0.36565C296.011 0.36565 298.094 0.864265 299.927 1.8615C301.76 2.83657 303.178 4.21053 304.182 5.98338C305.207 7.73407 305.72 9.73961 305.72 12C305.72 14.2604 305.196 16.277 304.149 18.0499C303.123 19.8006 301.683 21.1745 299.829 22.1717C297.974 23.1468 295.858 23.6343 293.48 23.6343H283.956V0.36565H293.676ZM293.807 19.2133C295.073 19.2133 296.207 18.9141 297.211 18.3158C298.236 17.6953 299.033 16.8421 299.6 15.7562C300.167 14.6704 300.451 13.4294 300.451 12.0332C300.451 10.6371 300.145 9.38504 299.534 8.27701C298.945 7.16898 298.127 6.31579 297.08 5.71745C296.054 5.09695 294.887 4.7867 293.578 4.7867H289.127V19.2133H293.807Z" fill="white"/>
<path d="M325.421 23.6343L323.621 19.1136H313.018L311.218 23.6343H305.883L315.832 0.36565H321.167L330.952 23.6343H325.421ZM314.72 14.892H321.952L318.352 5.85042L314.72 14.892Z" fill="white"/>
<path d="M349.174 0.36565H354.083V23.6343H349.37L338.276 8.6759V23.6343H333.334V0.36565H338.047L349.174 15.3906V0.36565Z" fill="white"/>
<path d="M375.718 7.64543C374.933 6.69252 374.005 5.95014 372.936 5.41828C371.889 4.86427 370.831 4.58726 369.762 4.58726C368.474 4.58726 367.296 4.90859 366.227 5.55125C365.158 6.19391 364.318 7.06925 363.707 8.17729C363.096 9.28532 362.791 10.5152 362.791 11.867C362.791 13.2188 363.096 14.4598 363.707 15.59C364.318 16.6981 365.158 17.5845 366.227 18.2493C367.296 18.892 368.474 19.2133 369.762 19.2133C370.787 19.2133 371.823 18.9695 372.871 18.482C373.94 17.9723 374.889 17.2964 375.718 16.4543L378.762 19.8116C377.54 21.097 376.1 22.1163 374.442 22.8698C372.805 23.6233 371.158 24 369.5 24C367.253 24 365.213 23.4792 363.38 22.4377C361.547 21.374 360.107 19.9224 359.06 18.0831C358.013 16.2438 357.489 14.1939 357.489 11.9335C357.489 9.69529 358.024 7.66759 359.093 5.85042C360.162 4.03324 361.624 2.60388 363.478 1.56233C365.355 0.520775 367.427 0 369.696 0C371.354 0 372.991 0.354571 374.605 1.06371C376.22 1.75069 377.594 2.69252 378.729 3.8892L375.718 7.64543Z" fill="white"/>
<path d="M381.849 0.36565H399.292V4.72022H387.02V9.77285H398.049V14.1274H387.02V19.2798H399.652V23.6343H381.849V0.36565Z" fill="white"/>
</svg>
