<svg width="30" height="22" viewBox="0 0 30 22" fill="none" xmlns="http://www.w3.org/2000/svg">
<path d="M3.77997 0.800171C2.10239 0.800171 0.719971 2.18258 0.719971 3.86017V18.1402C0.719971 19.8178 2.10239 21.2002 3.77997 21.2002H26.22C27.8976 21.2002 29.28 19.8178 29.28 18.1402V3.86017C29.28 2.18258 27.8976 0.800171 26.22 0.800171H3.77997ZM3.94997 2.84017H26.0394L15.6906 12.3921C15.2058 12.8396 14.7718 12.8393 14.2881 12.3921L3.94997 2.84017ZM2.75997 4.50828L12.8962 13.8902C14.066 14.9718 15.9125 14.9701 17.0825 13.8902L27.24 4.50828V18.1402C27.24 18.7229 26.8027 19.1602 26.22 19.1602H3.77997C3.19726 19.1602 2.75997 18.7229 2.75997 18.1402V4.50828Z" fill="white"/>
</svg>
