<svg width="26" height="26" viewBox="0 0 26 26" fill="none" xmlns="http://www.w3.org/2000/svg">
<path d="M24.5985 18.1619L21.577 15.1379C20.9803 14.5183 20.2593 14.1933 19.495 14.1933C18.7358 14.1933 18.0096 14.5183 17.3952 15.1302L15.821 16.7045C15.7423 16.6638 15.6661 16.6258 15.595 16.5902C15.4096 16.4988 15.2319 16.4074 15.0796 16.3109C13.4825 15.2978 12.0276 13.9699 10.6286 12.256C10.0116 11.4765 9.58503 10.8215 9.27527 10.1765C9.6739 9.80329 10.0497 9.42243 10.4052 9.05681C10.555 8.90447 10.7124 8.74704 10.8647 8.5947C11.4944 7.96501 11.827 7.23122 11.827 6.47458C11.827 5.71287 11.4944 4.97908 10.8647 4.35447L9.36413 2.85388C9.19402 2.68376 9.03152 2.51873 8.86394 2.34353L8.85632 2.33591C8.52878 1.99822 8.17585 1.64021 7.82292 1.31267C7.2237 0.726147 6.50769 0.416382 5.75105 0.416382C4.99949 0.416382 4.27585 0.728686 3.65886 1.31775L1.76726 3.20935C1.003 3.96599 0.57136 4.89021 0.482493 5.95662C0.380931 7.22615 0.611985 8.56677 1.20866 10.1689C2.10749 12.6115 3.46081 14.8713 5.46667 17.2808C7.89656 20.1855 10.8317 22.4834 14.1858 24.1109L14.1884 24.1134C15.4858 24.7279 17.2225 25.449 19.1446 25.5734H19.1675C19.2792 25.5785 19.3934 25.5836 19.5153 25.5836C20.894 25.5836 22.0061 25.1062 22.9126 24.1236C22.9278 24.1058 22.9481 24.0855 22.9684 24.0576C23.2223 23.7554 23.5118 23.4711 23.8216 23.174L23.8927 23.1054C24.1821 22.8287 24.4106 22.6002 24.6137 22.3894C25.2206 21.7572 25.5405 21.0234 25.538 20.2642C25.538 19.5025 25.213 18.7763 24.5985 18.1619ZM2.57722 6.13435C2.628 5.55798 2.84382 5.09841 3.25261 4.68962L5.1239 2.81833C5.32956 2.62029 5.54538 2.51365 5.74597 2.51365C5.98972 2.51365 6.20554 2.68123 6.34265 2.82087L6.35788 2.83611C6.64226 3.10017 6.91648 3.37947 7.20593 3.674L7.33796 3.80857C7.42429 3.89744 7.51316 3.9863 7.60203 4.07771C7.68835 4.16404 7.77468 4.2529 7.86101 4.34177L9.36667 5.84744C9.5241 6.00486 9.71199 6.24353 9.71199 6.4822C9.71199 6.72087 9.5241 6.95954 9.36667 7.11697C9.28796 7.19568 9.20925 7.27439 9.13054 7.35564C9.05437 7.43435 8.97566 7.51306 8.89695 7.59177L8.79031 7.69841C8.36628 8.12751 7.96257 8.53376 7.52839 8.92224L7.48523 8.9654C6.82761 9.62302 7.05359 10.3035 7.12722 10.5269C7.1323 10.5447 7.13738 10.5574 7.14245 10.5726L7.15261 10.598C7.56394 11.5832 8.12761 12.5023 8.98074 13.5763L8.98327 13.5789C10.5194 15.473 12.1393 16.9482 13.9395 18.0933C14.1376 18.2228 14.3382 18.3244 14.5337 18.4209C14.5692 18.4386 14.6073 18.4564 14.6428 18.4767L14.6454 18.4793C14.8307 18.5707 15.0085 18.6621 15.1608 18.7586L15.2065 18.784C15.2218 18.7916 15.237 18.8017 15.2522 18.8093C15.4757 18.9236 15.7067 18.982 15.9378 18.982C16.3288 18.982 16.6843 18.8246 16.994 18.5123L18.878 16.6283C19.0253 16.481 19.2487 16.3084 19.4925 16.3084C19.7413 16.3084 19.9571 16.5013 20.0663 16.6181L20.0714 16.6232L23.1132 19.6599C23.5499 20.0966 23.5423 20.4826 23.0928 20.9498L23.0878 20.9549C22.8745 21.1834 22.6485 21.4017 22.4352 21.6074L22.3743 21.6658C22.0341 21.9959 21.6837 22.3361 21.3561 22.7271C20.8585 23.2603 20.2923 23.4965 19.5204 23.4965C19.4493 23.4965 19.368 23.4914 19.2868 23.4863C17.71 23.3847 16.2247 22.7627 15.105 22.2295C12.0225 20.7365 9.32351 18.624 7.0866 15.9478C5.2407 13.7261 4.00163 11.6619 3.18152 9.45037C2.69656 8.14529 2.50105 7.08904 2.57722 6.13435Z" fill="white"/>
</svg>
