<svg width="83" height="83" viewBox="0 0 83 83" fill="none" xmlns="http://www.w3.org/2000/svg">
<path fill-rule="evenodd" clip-rule="evenodd" d="M41.5 82.3413C64.0549 82.3413 82.3413 64.0562 82.3413 41.5C82.3413 18.9451 64.0562 0.658722 41.5 0.658722C18.9451 0.658722 0.658722 18.9438 0.658722 41.5C0.658722 64.0549 18.9438 82.3413 41.5 82.3413ZM41.5 78.3889C21.1268 78.3889 4.6111 61.8732 4.6111 41.5C4.6111 21.1268 21.1268 4.6111 41.5 4.6111C61.8732 4.6111 78.3889 21.1268 78.3889 41.5C78.3889 61.8732 61.8732 78.3889 41.5 78.3889ZM32.6177 61.2751C30.7653 62.4318 29.2647 61.5926 29.2647 59.4135V24.0278C29.2647 21.8422 30.7759 21.0148 32.6177 22.1663L60.5478 39.6252C62.4002 40.782 62.3896 42.6646 60.5478 43.8161L32.6177 61.2751Z" fill="white"/>
</svg>
