<svg width="28" height="24" viewBox="0 0 28 24" fill="none" xmlns="http://www.w3.org/2000/svg">
<path d="M9.82891 11.3565C11.646 12.5577 12.5546 14.3596 12.5546 16.762C12.5546 18.7069 11.9489 20.3085 10.7375 21.5669C9.52606 22.8253 8.0118 23.4546 6.19469 23.4546C4.48771 23.4546 3.02852 22.854 1.81711 21.6527C0.605703 20.4515 0 18.8213 0 16.762C0 15.8468 0.13766 15.0174 0.412979 14.2738C0.688299 13.4729 1.10128 12.5291 1.65192 11.4423L7.51622 0.545471H13.7109L9.82891 11.3565ZM24.118 11.3565C25.9351 12.5577 26.8437 14.3596 26.8437 16.762C26.8437 18.7069 26.238 20.3085 25.0266 21.5669C23.8151 22.8253 22.3009 23.4546 20.4838 23.4546C18.7768 23.4546 17.3176 22.854 16.1062 21.6527C14.8948 20.4515 14.2891 18.8213 14.2891 16.762C14.2891 15.8468 14.4267 15.0174 14.7021 14.2738C14.9774 13.4729 15.3904 12.5291 15.941 11.4423L21.8053 0.545471H28L24.118 11.3565Z" fill="white"/>
</svg>
