<svg width="28" height="23" viewBox="0 0 28 23" fill="none" xmlns="http://www.w3.org/2000/svg">
<path d="M18.1711 12.098C16.354 10.8968 15.4454 9.09496 15.4454 6.69251C15.4454 4.74767 16.0511 3.14604 17.2625 1.8876C18.4739 0.629178 19.9882 -3.31253e-05 21.8053 -3.29665e-05C23.5123 -3.28173e-05 24.9715 0.600578 26.1829 1.8018C27.3943 3.00303 28 4.63327 28 6.69251C28 7.60773 27.8623 8.43715 27.587 9.18076C27.3117 9.98158 26.8987 10.9254 26.3481 12.0122L20.4838 22.9091L14.2891 22.9091L18.1711 12.098ZM3.88201 12.098C2.0649 10.8968 1.15634 9.09496 1.15634 6.69251C1.15635 4.74767 1.76204 3.14603 2.97345 1.8876C4.18486 0.629177 5.69912 -3.43745e-05 7.51623 -3.42157e-05C9.22321 -3.40664e-05 10.6824 0.600577 11.8938 1.8018C13.1052 3.00303 13.7109 4.63327 13.7109 6.69251C13.7109 7.60773 13.5733 8.43714 13.2979 9.18076C13.0226 9.98158 12.6096 10.9254 12.059 12.0122L6.19469 22.9091L0 22.9091L3.88201 12.098Z" fill="white"/>
</svg>
