<svg width="69" height="69" viewBox="0 0 69 69" fill="none" xmlns="http://www.w3.org/2000/svg">
<path d="M26.7177 23.3931C30.8347 23.3931 34.1822 20.0455 34.1822 15.9327C34.1822 11.8157 30.8326 8.46817 26.7177 8.46817C22.6027 8.46817 19.2531 11.8178 19.2531 15.9327C19.2531 20.0455 22.6007 23.3931 26.7177 23.3931ZM26.7177 10.557C29.6805 10.557 32.0913 12.9678 32.0913 15.9306C32.0913 18.8913 29.6805 21.3001 26.7177 21.3001C23.7548 21.3001 21.344 18.8913 21.344 15.9306C21.344 12.9678 23.7548 10.557 26.7177 10.557Z" fill="white"/>
<path d="M67.7392 12.7336L63.9274 7.28682L67.8772 1.64764C68.1009 1.32773 68.1281 0.909545 67.9482 0.564545C67.7684 0.217455 67.4109 0 67.022 0H49.128C48.5509 0 48.0825 0.468364 48.0825 1.04545V13.5303V18.5631C47.1207 18.7952 46.0878 19.2594 45.0235 19.7716C41.3352 21.5573 32.7499 25.4255 31.3176 26.0715H22.1176C20.6832 25.4255 12.1001 21.5552 8.40961 19.7716C6.9167 19.0503 5.47188 18.4042 4.21942 18.4042C3.0987 18.4042 2.21006 18.8997 1.58279 19.8762C-0.119213 22.5254 1.6267 24.4866 3.56288 26.0548C6.39188 28.3527 15.1967 33.8058 17.4235 35.1754V63.8292C17.4235 66.6791 19.7402 69 22.5922 69C24.2754 69 25.7725 68.1908 26.7176 66.9446C27.6627 68.1908 29.1598 69 30.8409 69C33.6908 69 36.0096 66.6812 36.0096 63.8292V35.1754C37.8789 34.0254 44.367 30.0045 48.0804 27.3825V67.9545C48.0804 68.5316 48.5488 69 49.1259 69C49.703 69 50.1713 68.5316 50.1713 67.9545V25.7976C51.9779 24.2713 53.4603 22.3832 51.8503 19.8762C51.4154 19.2008 50.8488 18.7701 50.1713 18.5589V14.5757H67.0199C67.0366 14.5778 67.0513 14.5778 67.0617 14.5757C67.6388 14.5757 68.1072 14.1074 68.1072 13.5303C68.1072 13.2104 67.965 12.9239 67.7392 12.7336ZM48.553 24.4344C45.4814 26.9267 34.5292 33.6302 34.4205 33.6992L33.9208 34.0045V63.8313C33.9208 65.5312 32.5408 66.9112 30.843 66.9112C29.1431 66.9112 27.7631 65.5312 27.7631 63.8313V50.7798H25.6722V63.8313C25.6722 65.5312 24.2922 66.9112 22.5922 66.9112C20.8944 66.9112 19.5144 65.5312 19.5144 63.8313V34.0045L19.0147 33.6992C18.9039 33.6323 7.95379 26.9288 4.88015 24.4323C2.59688 22.5818 2.80388 21.8458 3.34333 21.0074C3.61724 20.5808 3.8807 20.4951 4.21942 20.4951C5.0307 20.4951 6.28524 21.068 7.50006 21.6555C11.5376 23.6085 21.3649 28.0265 21.4632 28.0705L31.5413 28.1625L31.97 28.0705C32.0682 28.0265 41.8976 23.6064 45.931 21.6555C47.1479 21.0701 48.4045 20.4951 49.2137 20.4951C49.5524 20.4951 49.8159 20.5808 50.0898 21.0074C50.6313 21.8437 50.8362 22.5818 48.553 24.4344ZM50.1734 12.4848V2.09091H65.0126L61.7968 6.68464C61.5438 7.04636 61.5438 7.52309 61.7968 7.88482L65.0147 12.4827H50.1734V12.4848Z" fill="white"/>
</svg>
