<svg width="100" height="100" viewBox="0 0 100 100" fill="none" xmlns="http://www.w3.org/2000/svg">
<path d="M55.896 13.291C37.917 13.291 22.926 26.287 19.797 43.376C9.69301 52.243 5.46701 60.502 8.21601 66.067C10.135 69.951 15.143 71.905 22.269 71.905C23.544 71.905 24.906 71.824 26.312 71.699C33 80.793 43.768 86.709 55.897 86.709C76.138 86.709 92.606 70.241 92.606 50C92.606 29.759 76.138 13.291 55.896 13.291ZM81.501 26.594C78.918 27.694 75.954 28.616 72.693 29.323C70.522 23.534 67.462 18.982 63.877 16.227C70.767 17.855 76.872 21.535 81.501 26.594ZM56.824 15.341C62.429 15.896 67.483 21.448 70.674 29.732C66.375 30.526 61.67 30.968 56.824 31.019V15.341ZM47.994 16.209C44.393 18.977 41.319 23.559 39.136 29.336C35.862 28.628 32.888 27.698 30.293 26.593C34.938 21.516 41.072 17.828 47.994 16.209ZM54.824 15.356V31.016C50.002 30.958 45.33 30.515 41.063 29.725C44.192 21.507 49.166 15.98 54.824 15.356ZM21.231 48.251C21.61 40.669 24.436 33.725 28.928 28.182C31.7 29.419 34.917 30.451 38.465 31.232C36.806 36.258 35.79 42.055 35.628 48.252H21.231V48.251ZM38.042 67.477C34.176 68.508 30.541 69.208 27.249 69.57C23.473 64.059 21.245 57.41 21.193 50.252H35.607C35.631 56.481 36.51 62.345 38.042 67.477ZM10.009 65.181C7.91001 60.933 11.482 53.891 19.361 46.477C19.25 47.637 19.188 48.812 19.188 50C19.188 57.274 21.324 64.055 24.988 69.766C17.278 70.269 11.769 68.743 10.009 65.181ZM28.633 71.441C31.731 71.035 35.085 70.353 38.657 69.387C40.839 75.744 44.065 80.802 47.922 83.774C40.168 81.943 33.414 77.508 28.633 71.441ZM56.824 84.686V76.584C56.479 77.03 56.042 77.409 55.525 77.681L54.824 78.05V84.639C48.916 83.964 43.712 77.77 40.611 68.834C41.691 68.518 42.787 68.178 43.9 67.813L44.341 68.653C44.517 68.987 44.862 69.187 45.226 69.187C45.307 69.187 45.389 69.177 45.471 69.157L47.906 68.542L51.469 75.298C51.649 75.638 51.995 75.831 52.355 75.831C52.512 75.831 52.671 75.794 52.82 75.716L54.128 75.028C54.455 74.856 54.66 74.517 54.662 74.147L54.693 66.813C55.518 66.574 56.263 66.276 57.045 65.865L60.027 64.296L63.417 80.278C63.482 80.585 63.688 80.843 63.971 80.976C64.106 81.039 64.251 81.071 64.396 81.071C64.556 81.071 64.716 81.033 64.862 80.956L68.925 78.817C69.216 78.664 69.412 78.379 69.452 78.051L71.86 58.069L75.398 56.207C76.607 55.571 77.96 54.241 79.016 52.65C79.865 51.372 80.747 49.604 80.132 48.437C79.493 47.224 77.553 46.969 76.037 46.969C74.516 46.969 72.363 47.246 70.881 48.027L67.511 49.8L49.676 40.468C49.385 40.316 49.037 40.316 48.746 40.469L44.683 42.607C44.406 42.753 44.213 43.02 44.162 43.329C44.11 43.639 44.208 43.954 44.424 44.181L55.678 56.028L52.696 57.597C51.902 58.015 51.226 58.468 50.55 59.025L44.56 54.947C44.255 54.739 43.859 54.717 43.533 54.887L42.224 55.575C41.735 55.832 41.546 56.436 41.803 56.926L45.315 63.614L43.428 65.272C43.218 65.457 43.115 65.715 43.103 65.981C42.056 66.321 41.022 66.639 40.002 66.935C38.504 61.96 37.632 56.261 37.608 50.253H46.053L44.153 48.253H37.629C37.789 42.17 38.781 36.498 40.389 31.63C44.866 32.481 49.769 32.959 54.826 33.019V39.778L56.826 40.825V33.021C61.91 32.968 66.851 32.49 71.363 31.635C72.614 35.375 73.497 39.594 73.914 44.107C74.57 44.026 75.24 43.979 75.912 43.974C75.494 39.358 74.613 35.057 73.359 31.224C76.895 30.444 80.109 29.419 82.869 28.189C87.36 33.73 90.185 40.673 90.563 48.253H83.213C83.351 48.883 83.374 49.548 83.262 50.253H90.6C90.539 58.697 87.447 66.431 82.361 72.425C79.774 71.319 76.781 70.367 73.489 69.632L73.249 71.625C76.077 72.267 78.667 73.069 80.944 73.993C74.821 80.38 66.291 84.436 56.824 84.686ZM57.517 55.059L46.784 43.761L49.213 42.483L65.359 50.932L57.517 55.059ZM71.813 49.795C72.753 49.301 74.452 48.968 76.038 48.968C77.398 48.968 78.137 49.215 78.343 49.364C78.369 50.267 76.395 53.423 74.467 54.436L70.47 56.54C70.468 56.541 70.466 56.541 70.464 56.542L60.266 61.909C60.265 61.909 60.265 61.91 60.264 61.91L56.114 64.095C55.323 64.512 54.612 64.783 53.739 65.005L46.047 66.949L45.693 65.941L51.531 60.809C52.208 60.214 52.835 59.783 53.627 59.367L71.813 49.795ZM69.709 59.199L67.529 77.29L65.099 78.568L61.867 63.325L69.709 59.199ZM52.691 67.332L52.666 73.276L49.902 68.037L52.691 67.332ZM46.859 62.252L44.144 57.082L48.988 60.38L46.859 62.252Z" fill="white"/>
</svg>
