<svg width="68" height="58" viewBox="0 0 68 58" fill="none" xmlns="http://www.w3.org/2000/svg">
<path d="M66.625 0.625H14.875C14.2529 0.625 13.75 1.129 13.75 1.75V6.25V10.75V17.5V28.75H1.375C0.752875 28.75 0.25 29.254 0.25 29.875C0.25 34.6979 3.63962 38.7434 8.161 39.7559C8.45912 43.3379 10.5674 46.2291 13.7545 47.7738C13.7511 47.8075 13.75 47.8413 13.75 47.875C13.75 53.7419 18.4818 58 25 58H27.6111L29.5923 57.9404C37.1118 57.3182 43 50.9204 43 43.375C43 40.9394 42.3936 38.6466 41.3361 36.625H66.625C67.2471 36.625 67.75 36.121 67.75 35.5V28.75V17.5V10.75V6.25V1.75C67.75 1.129 67.2471 0.625 66.625 0.625ZM16 11.875H20.3864C19.9386 14.0755 18.2005 15.8136 16 16.2614V11.875ZM16 9.625V7.375H65.5V9.625H16ZM65.5 11.875V16.2614C63.2995 15.8136 61.5614 14.0755 61.1136 11.875H65.5ZM16 2.875H65.5V5.125H16V2.875ZM29.4674 55.6938L25 55.75C20.1411 55.75 16.6255 53.0275 16.0754 49H25C25.6221 49 26.125 48.496 26.125 47.875C26.125 47.254 25.6221 46.75 25 46.75H19.375C14.5161 46.75 11.0005 44.0275 10.4504 40H17.125C17.7471 40 18.25 39.496 18.25 38.875C18.25 38.254 17.7471 37.75 17.125 37.75H10.375C6.41388 37.75 3.12775 34.8115 2.57987 31H28.375C28.8452 31 29.311 31.0315 29.7734 31.0844C29.8769 31.0956 29.977 31.117 30.0794 31.1316C30.4472 31.1834 30.814 31.2464 31.174 31.3307C31.2685 31.3521 31.3608 31.3791 31.4541 31.4028C31.831 31.5006 32.2034 31.6131 32.5679 31.7459C32.6331 31.7695 32.6984 31.7931 32.7625 31.8179C33.1776 31.9765 33.586 32.1543 33.982 32.3568C33.9932 32.3624 34.0034 32.3669 34.0146 32.3725C34.8708 32.8135 35.6774 33.3535 36.4142 33.9846C36.421 33.9902 36.4266 33.9959 36.4322 34.0015C36.7743 34.2951 37.0982 34.6113 37.4076 34.9431C37.4549 34.9938 37.501 35.0455 37.5471 35.0972C37.8284 35.4089 38.0961 35.7351 38.347 36.0771C39.85 38.1269 40.75 40.6446 40.75 43.375C40.75 49.7583 35.7674 55.1706 29.4674 55.6938ZM36.2511 31.072C36.2072 31.0439 36.1623 31.0191 36.1184 30.991C35.7145 30.7379 35.2971 30.5039 34.8685 30.2901C34.7976 30.2552 34.7267 30.2215 34.6559 30.1877C34.2486 29.9931 33.8324 29.8176 33.4071 29.6612C33.3205 29.6297 33.235 29.596 33.1473 29.5656C32.7355 29.4228 32.3159 29.3001 31.8884 29.1944C31.7871 29.1685 31.687 29.1393 31.5846 29.1156C31.1661 29.0211 30.7409 28.9503 30.31 28.8929C30.2009 28.8783 30.0951 28.8558 29.986 28.8434C29.455 28.7849 28.9195 28.75 28.375 28.75H16V18.535C19.4414 18.0389 22.1639 15.3164 22.66 11.875H58.84C59.3361 15.3164 62.0586 18.0389 65.5 18.535V27.715C62.0586 28.2111 59.3361 30.9336 58.84 34.375H39.886C39.8702 34.3548 39.8511 34.3368 39.8343 34.3165C38.8285 33.0464 37.618 31.9495 36.2511 31.072ZM65.5 34.375H61.1136C61.5614 32.1745 63.2995 30.4364 65.5 29.9886V34.375Z" fill="white"/>
</svg>
