<svg width="73" height="63" viewBox="0 0 73 63" fill="none" xmlns="http://www.w3.org/2000/svg">
<path d="M52.9596 0.472031C44.3836 0.472031 39.0236 5.88803 36.6316 9.04003C34.2156 5.90403 28.8076 0.472031 20.3196 0.472031C8.91962 0.472031 0.639618 9.44803 0.639618 21.816C0.639618 22.84 1.03962 47.104 35.9756 62.352C36.1916 62.448 36.4156 62.488 36.6396 62.488C36.8636 62.488 37.0956 62.44 37.3036 62.352C72.2396 47.096 72.6396 22.84 72.6396 21.808C72.6396 9.44803 64.3596 0.472031 52.9596 0.472031ZM20.3196 3.80003C30.0636 3.80003 34.9756 12.448 35.1836 12.816C35.7756 13.872 37.5276 13.872 38.1036 12.808C38.3036 12.432 43.1436 3.80003 52.9596 3.80003C62.4316 3.80003 69.3116 11.376 69.3116 21.816C69.3116 21.904 69.2556 25.072 67.5276 29.768H43.9676C43.2716 29.768 42.6476 30.2 42.4076 30.848L39.6316 38.312L35.7916 17.888C35.6556 17.152 35.0396 16.6 34.2956 16.536C33.5036 16.472 32.8556 16.92 32.5916 17.616L28.1116 29.68H5.63962C4.04762 25.224 3.96762 22.144 3.96762 21.808C3.96762 11.376 10.8476 3.80003 20.3196 3.80003ZM36.6396 59.008C18.7916 51.048 10.6956 40.76 7.02362 33.008H29.2716C29.9676 33.008 30.5916 32.576 30.8316 31.92L33.6236 24.392L37.4636 44.8C37.5996 45.536 38.2156 46.088 38.9596 46.152C39.0076 46.16 39.0556 46.16 39.1036 46.16C39.7916 46.16 40.4236 45.736 40.6636 45.08L45.1276 33.088H66.1196C62.3756 40.856 54.2636 51.144 36.6396 59.008Z" fill="white"/>
</svg>
