<svg width="88" height="88" viewBox="0 0 88 88" fill="none" xmlns="http://www.w3.org/2000/svg">
<path d="M44 5.28C22.6364 5.28 5.27999 22.6364 5.27999 44C5.27999 65.3637 22.6364 82.72 44 82.72C65.3636 82.72 82.72 65.3637 82.72 44C82.7199 43.5332 82.5345 43.0856 82.2045 42.7555C81.8744 42.4255 81.4268 42.24 80.96 42.24H76.7525C76.5193 42.2367 76.2877 42.2798 76.0713 42.3668C75.8549 42.4537 75.6579 42.5828 75.4918 42.7466C75.3257 42.9104 75.1938 43.1055 75.1038 43.3207C75.0138 43.5358 74.9674 43.7668 74.9674 44C74.9674 44.2332 75.0138 44.4642 75.1038 44.6793C75.1938 44.8945 75.3257 45.0896 75.4918 45.2534C75.6579 45.4172 75.8549 45.5463 76.0713 45.6332C76.2877 45.7202 76.5193 45.7633 76.7525 45.76H79.035C78.6153 54.1297 75.2991 61.735 70.07 67.5675L68.365 65.8625C68.178 65.6701 67.9494 65.5229 67.6968 65.4324C67.4442 65.3418 67.1742 65.3102 66.9075 65.34C66.5777 65.3769 66.2651 65.5064 66.0057 65.7134C65.7463 65.9203 65.5507 66.1964 65.4414 66.5098C65.3322 66.8232 65.3137 67.161 65.3882 67.4844C65.4627 67.8078 65.6272 68.1035 65.8625 68.3375L67.595 70.07C61.7802 75.3768 54.1736 78.759 45.76 79.1725V76.67C45.7637 76.4342 45.72 76.2001 45.6314 75.9816C45.5429 75.7631 45.4114 75.5646 45.2447 75.3978C45.0779 75.2311 44.8794 75.0996 44.6609 75.011C44.4423 74.9225 44.2082 74.8788 43.9725 74.8825C43.7414 74.8861 43.5132 74.9352 43.3011 75.027C43.0889 75.1188 42.8969 75.2514 42.736 75.4174C42.5751 75.5834 42.4485 75.7794 42.3634 75.9944C42.2783 76.2093 42.2364 76.4389 42.24 76.67V79.1725C33.8324 78.7602 26.2168 75.3859 20.3775 70.0975L22.1375 68.3375C22.3988 68.0789 22.5726 67.7449 22.6344 67.3825C22.6962 67.0201 22.643 66.6474 22.4823 66.3168C22.3215 65.9861 22.0612 65.7141 21.738 65.5389C21.4148 65.3638 21.0448 65.2942 20.68 65.34C20.2823 65.3901 19.9137 65.5744 19.635 65.8625L17.875 67.6225C12.5936 61.785 9.26702 54.1612 8.85499 45.76H11.3025C11.5357 45.7633 11.7673 45.7202 11.9837 45.6332C12.2001 45.5463 12.3971 45.4172 12.5632 45.2534C12.7293 45.0896 12.8612 44.8945 12.9512 44.6793C13.0412 44.4642 13.0876 44.2332 13.0876 44C13.0876 43.7668 13.0412 43.5358 12.9512 43.3207C12.8612 43.1055 12.7293 42.9104 12.5632 42.7466C12.3971 42.5828 12.2001 42.4537 11.9837 42.3668C11.7673 42.2798 11.5357 42.2367 11.3025 42.24H8.85499C9.26735 33.8322 12.6139 26.2168 17.9025 20.3775L19.635 22.11C19.7963 22.2796 19.9898 22.4153 20.2042 22.5092C20.4185 22.6032 20.6495 22.6534 20.8835 22.657C21.1175 22.6605 21.3499 22.6174 21.5671 22.5301C21.7842 22.4428 21.9818 22.3131 22.1482 22.1485C22.3146 21.9839 22.4465 21.7878 22.5362 21.5716C22.6259 21.3554 22.6716 21.1235 22.6706 20.8895C22.6696 20.6554 22.622 20.4239 22.5304 20.2085C22.4389 19.9931 22.3053 19.7982 22.1375 19.635L20.405 17.9025C26.2406 12.6288 33.8458 9.26668 42.24 8.855V11.3025C42.2367 11.5357 42.2798 11.7673 42.3668 11.9837C42.4537 12.2001 42.5828 12.3971 42.7466 12.5632C42.9104 12.7293 43.1055 12.8612 43.3207 12.9512C43.5358 13.0412 43.7668 13.0876 44 13.0876C44.2332 13.0876 44.4642 13.0412 44.6793 12.9512C44.8945 12.8612 45.0896 12.7293 45.2534 12.5632C45.4172 12.3971 45.5463 12.2001 45.6332 11.9837C45.7202 11.7673 45.7633 11.5357 45.76 11.3025V8.855C58.7543 9.49398 69.8812 17.1605 75.4325 28.1325L66.5225 26.125C66.0667 26.0229 65.5889 26.106 65.1944 26.3562C64.7999 26.6063 64.5209 27.0029 64.4187 27.4587C64.3166 27.9146 64.3998 28.3923 64.6499 28.7868C64.9 29.1814 65.2967 29.4604 65.7525 29.5625L78.925 32.5325C79.1526 32.5851 79.3884 32.5918 79.6187 32.5523C79.8489 32.5128 80.069 32.4279 80.2661 32.3025C80.4632 32.177 80.6334 32.0136 80.7666 31.8218C80.8999 31.6299 80.9937 31.4135 81.0425 31.185L84.0125 17.985C84.0654 17.7593 84.0733 17.5253 84.0355 17.2965C83.9978 17.0678 83.9152 16.8487 83.7925 16.6519C83.6699 16.4552 83.5096 16.2846 83.3208 16.15C83.132 16.0154 82.9185 15.9194 82.6925 15.8675C82.4649 15.8149 82.2291 15.8082 81.9988 15.8477C81.7686 15.8872 81.5485 15.9721 81.3514 16.0975C81.1543 16.223 80.9841 16.3864 80.8508 16.5782C80.7175 16.7701 80.6238 16.9865 80.575 17.215L78.5125 26.4275C72.1091 13.8681 59.0482 5.28 44 5.28ZM43.8075 20.1575C43.3701 20.2056 42.9665 20.4157 42.6764 20.7466C42.3862 21.0775 42.2305 21.505 42.24 21.945V38.17C39.7373 38.9311 37.895 41.2609 37.895 44C37.895 47.349 40.651 50.105 44 50.105C45.0379 50.105 46.0285 49.8269 46.8875 49.3625L55.165 57.6675C55.3293 57.8318 55.5244 57.9622 55.7391 58.0511C55.9538 58.14 56.1839 58.1858 56.4162 58.1858C56.6486 58.1858 56.8787 58.14 57.0934 58.0511C57.3081 57.9622 57.5032 57.8318 57.6675 57.6675C57.8318 57.5032 57.9622 57.3081 58.0511 57.0934C58.14 56.8787 58.1858 56.6486 58.1858 56.4162C58.1858 56.1839 58.14 55.9538 58.0511 55.7391C57.9622 55.5244 57.8318 55.3293 57.6675 55.165L49.3625 46.8875C49.8341 46.0234 50.105 45.0466 50.105 44C50.105 41.2601 48.2638 38.9304 45.76 38.17V21.945C45.7654 21.6945 45.7172 21.4456 45.6187 21.2152C45.5202 20.9848 45.3736 20.778 45.1888 20.6088C45.0039 20.4396 44.7851 20.3118 44.5469 20.234C44.3087 20.1561 44.0566 20.1301 43.8075 20.1575ZM44 41.415C45.4467 41.415 46.585 42.5534 46.585 44C46.585 45.4467 45.4467 46.585 44 46.585C42.5534 46.585 41.415 45.4467 41.415 44C41.415 42.5534 42.5534 41.415 44 41.415Z" fill="white"/>
</svg>
