<svg width="80" height="80" viewBox="0 0 80 80" fill="none" xmlns="http://www.w3.org/2000/svg">
<path d="M60.8485 44.8957C62.8427 42.1978 66.2223 35.4938 67.1431 29.6727C68.0754 23.778 66.2228 15.9644 62.8332 11.4966C58.7577 6.13554 51.757 2.59603 44.5626 2.25927C36.3767 1.87879 30.712 2.99627 26.192 5.87995C20.3208 9.62622 18.4885 15.3596 17.9189 18.4437C17.8458 18.839 17.785 19.2018 17.7289 19.5366C17.6184 20.1962 17.5311 20.7172 17.4089 21.1332C16.9311 22.7595 16.4798 24.2955 17.5229 26.6823C17.835 27.3977 17.9428 28.4128 16.3784 30.5132L15.9049 31.1452C13.6976 34.0825 12.3767 36.0051 12.6448 37.9239C12.9597 40.2806 15.08 41.0814 16.0388 41.3997C16.0076 41.4748 15.9721 41.5565 15.9317 41.6452L15.8517 41.8155C15.5661 42.4174 14.7696 44.0961 15.8775 45.7715C15.7526 46.1971 15.7438 46.5847 15.7553 46.8823L15.7571 46.9234C15.736 48.0429 16.3407 48.7652 16.7022 49.1972C16.77 49.2782 16.8591 49.3844 16.8991 49.4434C16.8969 49.47 16.8907 49.5165 16.8738 49.5868C16.5219 51.0304 16.1151 53.7356 17.3432 55.6335C17.936 56.5494 18.8518 57.1625 19.923 57.3603C22.6149 57.8549 24.6084 57.6601 26.2117 57.5035L26.2342 57.5014C26.9637 57.4299 27.6521 57.3625 28.3065 57.3741C28.9572 57.3843 29.4609 57.774 29.5214 57.9251C29.9636 59.2906 30.3897 61.669 30.1356 63.8785C29.9768 65.2687 29.7879 65.6802 29.3003 66.6558L28.647 67.5366C28.2357 68.091 28.3518 68.874 28.9064 69.2852C29.1301 69.4512 29.3912 69.5313 29.65 69.5313C30.0323 69.5313 30.4097 69.3565 30.6549 69.0259L31.4384 67.9697L31.4872 67.872C32.0597 66.7279 32.4052 66.0374 32.6194 64.1633C32.9191 61.5565 32.4191 58.7588 31.8986 57.1513C31.4822 55.8786 29.9549 54.8997 28.348 54.8744C27.5521 54.8612 26.7941 54.9348 25.991 55.0132L25.9673 55.0155C24.3716 55.1714 22.7214 55.3327 20.3758 54.9016C19.9721 54.8271 19.6666 54.6222 19.442 54.2752C18.8327 53.3336 18.9705 51.5417 19.3036 50.1749C19.6334 48.8031 19.0469 48.103 18.619 47.5921C18.3703 47.2951 18.2535 47.137 18.2565 46.9778C18.2579 46.92 18.2565 46.8616 18.2542 46.8037L17.0052 46.8529L18.2536 46.7872C18.2424 46.501 18.2881 46.4152 18.3538 46.3254L18.9947 45.4489L18.2164 44.6917C17.6531 44.1437 17.7284 43.6921 18.1127 42.8822L18.2005 42.6951C18.7842 41.4147 18.9093 40.5483 18.5942 39.9686L18.4372 39.6796L18.1583 39.5054C17.9885 39.3993 17.8339 39.3514 17.5213 39.2597C17.4778 39.247 17.3625 39.2133 17.2997 39.1882C17.213 39.1541 17.106 39.1183 16.9854 39.0791L16.9497 39.0675C15.8975 38.724 15.2249 38.3575 15.1217 37.5854C14.9761 36.5426 16.5993 34.3827 17.9046 32.6457L18.3813 32.0094C19.5164 30.4853 20.8999 28.1713 19.814 25.682C19.1348 24.1277 19.3596 23.3625 19.8078 21.8366C19.9719 21.2781 20.0751 20.6625 20.1946 19.9496C20.2485 19.6275 20.307 19.2784 20.3772 18.8979C20.8731 16.2128 22.4627 11.225 27.5367 7.9875C31.5943 5.39877 36.8092 4.40199 44.4462 4.75653C50.9205 5.05957 57.2035 8.22195 60.8424 13.0086C63.8639 16.9914 65.5111 23.9876 64.6739 29.2821C63.8182 34.6914 60.6857 40.91 58.8389 43.4085C56.7724 46.1974 55.81 48.2419 55.7189 50.0372C55.4509 55.2709 56.5863 60.2743 59.768 67.8829L59.8106 67.9845L60.4312 68.949C60.8046 69.5296 61.578 69.6976 62.1588 69.3239C62.7392 68.9504 62.9071 68.1769 62.5335 67.5963L62.0323 66.8171C59.0405 59.6436 57.9698 54.9674 58.2156 50.1646C58.2795 48.9078 59.1159 47.2339 60.8485 44.8957Z" fill="white"/>
<path d="M56.2125 12.3143C53.1444 9.20975 48.7738 7.5 43.9062 7.5C39.0386 7.5 34.6682 9.20975 31.6 12.3143C28.27 15.6837 26.5099 20.574 26.5099 26.4565C26.5099 32.184 28.5319 37.8125 32.2034 42.305C34.643 45.2902 37.5634 47.4177 40.4513 48.3963L38.5604 52.2402H42.6562V76.5625C42.6562 77.2529 43.2159 77.8125 43.9062 77.8125C44.5966 77.8125 45.1562 77.2529 45.1562 76.5625V52.2402H49.252L47.3553 48.3843C50.2055 47.4007 53.1046 45.2796 55.5482 42.3079C59.259 37.7953 61.3026 32.1658 61.3026 26.4565C61.3026 20.574 59.5425 15.6837 56.2125 12.3143ZM45.2362 49.7402H42.5763L42.9641 48.9519C43.2806 48.9833 43.5951 49.001 43.9062 49.001C44.2169 49.001 44.5312 48.9829 44.8478 48.9507L45.2362 49.7402ZM53.6172 40.7201C50.685 44.2859 46.964 46.501 43.9062 46.501C40.7944 46.501 37.0518 44.287 34.1391 40.723C30.8315 36.6756 29.0099 31.609 29.0099 26.4565C29.0099 21.2458 30.5204 16.9632 33.3781 14.0717C36.0106 11.4079 39.6512 10 43.9062 10C48.1613 10 51.8019 11.4079 54.4344 14.0717C57.2922 16.9632 58.8026 21.2458 58.8026 26.4565C58.8026 31.5881 56.9611 36.6537 53.6172 40.7201Z" fill="white"/>
</svg>
