<svg width="66" height="66" viewBox="0 0 66 66" fill="none" xmlns="http://www.w3.org/2000/svg">
<g clip-path="url(#clip0)">
<path d="M34.5468 5.52335V2.12848C34.5468 1.71822 34.3838 1.32477 34.0937 1.03467C33.8036 0.744578 33.4102 0.581604 32.9999 0.581604C32.5897 0.581604 32.1962 0.744578 31.9061 1.03467C31.616 1.32477 31.453 1.71822 31.453 2.12848V5.52335C27.5912 5.91199 24.0109 7.71958 21.4052 10.5962C18.7995 13.4728 17.3536 17.2139 17.3476 21.0952V26.3546C17.3476 26.7649 17.5106 27.1583 17.8007 27.4484C18.0908 27.7385 18.4842 27.9015 18.8945 27.9015C19.3047 27.9015 19.6982 27.7385 19.9883 27.4484C20.2784 27.1583 20.4414 26.7649 20.4414 26.3546V21.0952C20.4468 18.0351 21.5683 15.0821 23.5956 12.7899C25.6228 10.4976 28.4166 9.02347 31.453 8.64392V11.4004C31.453 11.8107 31.616 12.2042 31.9061 12.4943C32.1962 12.7843 32.5897 12.9473 32.9999 12.9473C33.4102 12.9473 33.8036 12.7843 34.0937 12.4943C34.3838 12.2042 34.5468 11.8107 34.5468 11.4004V8.64392C37.5839 9.02308 40.3783 10.4973 42.4058 12.7901C44.4334 15.0829 45.5547 18.0366 45.5595 21.0973V26.3567C45.5595 26.7669 45.7225 27.1604 46.0126 27.4505C46.3027 27.7406 46.6961 27.9035 47.1064 27.9035C47.5166 27.9035 47.9101 27.7406 48.2002 27.4505C48.4903 27.1604 48.6533 26.7669 48.6533 26.3567V21.0973C48.6477 17.2154 47.202 13.4737 44.596 10.5966C41.99 7.71957 38.4092 5.91179 34.5468 5.52335Z" fill="white"/>
<path d="M47.1064 38.0964C46.6961 38.0964 46.3027 38.2594 46.0126 38.5495C45.7225 38.8396 45.5595 39.2331 45.5595 39.6433V44.9027C45.5549 47.9634 44.4337 50.9173 42.4061 53.2101C40.3785 55.5029 37.584 56.9771 34.5468 57.3561V54.5985C34.5468 54.1882 34.3838 53.7948 34.0937 53.5047C33.8036 53.2146 33.4102 53.0516 32.9999 53.0516C32.5897 53.0516 32.1962 53.2146 31.9061 53.5047C31.616 53.7948 31.453 54.1882 31.453 54.5985V57.3561C28.4161 56.9767 25.622 55.5023 23.5946 53.2096C21.5673 50.9168 20.4461 47.9632 20.4414 44.9027V39.6433C20.4414 39.2331 20.2784 38.8396 19.9883 38.5495C19.6982 38.2594 19.3047 38.0964 18.8945 38.0964C18.4842 38.0964 18.0908 38.2594 17.8007 38.5495C17.5106 38.8396 17.3476 39.2331 17.3476 39.6433V44.9027C17.3531 48.7844 18.7987 52.5259 21.4045 55.403C24.0103 58.2801 27.5909 60.0879 31.453 60.4766V63.8715C31.453 64.2818 31.616 64.6752 31.9061 64.9653C32.1962 65.2554 32.5897 65.4184 32.9999 65.4184C33.4102 65.4184 33.8036 65.2554 34.0937 64.9653C34.3838 64.6752 34.5468 64.2818 34.5468 63.8715V60.4766C38.4088 60.0882 41.9894 58.2807 44.5953 55.4041C47.2013 52.5274 48.6472 48.7862 48.6533 44.9047V39.6454C48.6535 39.4421 48.6137 39.2407 48.5361 39.0528C48.4585 38.8649 48.3446 38.6941 48.2009 38.5502C48.0573 38.4064 47.8866 38.2922 47.6988 38.2144C47.511 38.1365 47.3097 38.0964 47.1064 38.0964Z" fill="white"/>
<path d="M54.7089 35.6606C54.5855 35.4939 54.4299 35.3538 54.2513 35.2484C54.0727 35.1431 53.8747 35.0747 53.6691 35.0474C53.4636 35.0201 53.2546 35.0344 53.0547 35.0895C52.8548 35.1446 52.668 35.2393 52.5054 35.368C52.3428 35.4967 52.2078 35.6567 52.1083 35.8387C52.0088 36.0206 51.9469 36.2207 51.9263 36.4271C51.9057 36.6334 51.9267 36.8418 51.9883 37.0398C52.0498 37.2378 52.1505 37.4215 52.2844 37.5798L54.8316 40.7993C54.9577 40.9586 55.114 41.0915 55.2915 41.1903C55.469 41.2892 55.6642 41.3521 55.8661 41.3755C56.0679 41.3989 56.2723 41.3824 56.4677 41.3268C56.6631 41.2712 56.8457 41.1776 57.005 41.0515C57.1642 40.9253 57.2971 40.769 57.3959 40.5916C57.4948 40.4141 57.5577 40.2188 57.5811 40.017C57.6046 39.8152 57.588 39.6108 57.5324 39.4153C57.4768 39.2199 57.3832 39.0374 57.2571 38.8781L54.7089 35.6606Z" fill="white"/>
<path d="M52.6444 31.3098C52.9867 31.5358 53.4047 31.6165 53.8066 31.5344C54.2084 31.4522 54.5612 31.2137 54.7873 30.8715L57.3376 27.0126C57.4604 26.8436 57.5477 26.6515 57.5942 26.4478C57.6408 26.2442 57.6456 26.0332 57.6084 25.8276C57.5712 25.6221 57.4927 25.4262 57.3777 25.2518C57.2627 25.0774 57.1136 24.9281 56.9394 24.8129C56.7651 24.6976 56.5694 24.6189 56.3639 24.5814C56.1583 24.5439 55.9474 24.5485 55.7437 24.5947C55.54 24.641 55.3477 24.728 55.1786 24.8506C55.0094 24.9732 54.8668 25.1287 54.7594 25.3079L52.2112 29.1658C51.9844 29.5076 51.9026 29.9254 51.9839 30.3275C52.0651 30.7295 52.3027 31.0829 52.6444 31.3098Z" fill="white"/>
<path d="M13.465 35.408C13.1434 35.1534 12.7338 35.037 12.3263 35.0843C11.9188 35.1317 11.5468 35.339 11.2922 35.6606L8.74293 38.8781C8.61133 39.0368 8.51278 39.2202 8.45305 39.4175C8.39332 39.6148 8.37363 39.822 8.39513 40.027C8.41664 40.232 8.4789 40.4307 8.57826 40.6113C8.67762 40.7919 8.81208 40.9508 8.97374 41.0787C9.13539 41.2066 9.32098 41.3009 9.5196 41.3561C9.71822 41.4113 9.92586 41.4262 10.1303 41.4C10.3348 41.3737 10.5319 41.3069 10.7102 41.2034C10.8885 41.0999 11.0443 40.9618 11.1684 40.7973L13.7156 37.5798C13.9701 37.2585 14.0867 36.8492 14.0397 36.442C13.9927 36.0348 13.786 35.6629 13.465 35.408Z" fill="white"/>
<path d="M11.2467 25.3079C11.1393 25.1287 10.9967 24.9732 10.8276 24.8506C10.6584 24.728 10.4662 24.641 10.2625 24.5947C10.0588 24.5485 9.84782 24.5439 9.64231 24.5814C9.43681 24.6189 9.24103 24.6976 9.06677 24.8129C8.89252 24.9281 8.74341 25.0774 8.62844 25.2518C8.51347 25.4262 8.43501 25.6221 8.3978 25.8276C8.36059 26.0332 8.3654 26.2442 8.41194 26.4478C8.45848 26.6515 8.54579 26.8436 8.66859 27.0126L11.2168 30.8715C11.3247 31.0497 11.4676 31.2042 11.6367 31.3259C11.8058 31.4475 11.9978 31.5337 12.201 31.5794C12.4043 31.625 12.6147 31.6291 12.8196 31.5914C13.0245 31.5537 13.2197 31.4751 13.3934 31.3601C13.5671 31.2452 13.7159 31.0963 13.8307 30.9225C13.9455 30.7486 14.024 30.5534 14.0615 30.3485C14.099 30.1436 14.0947 29.9332 14.0489 29.7299C14.0031 29.5267 13.9167 29.3348 13.7949 29.1658L11.2467 25.3079Z" fill="white"/>
</g>
<defs>
<clipPath id="clip0">
<rect width="66" height="66" fill="white"/>
</clipPath>
</defs>
</svg>
